<?xml version="1.0" encoding="utf-8"?>
<!-- Generator: Adobe Illustrator 22.0.0, SVG Export Plug-In . SVG Version: 6.00 Build 0)  -->
<svg version="1.1" xmlns="http://www.w3.org/2000/svg" xmlns:xlink="http://www.w3.org/1999/xlink" x="0px" y="0px" width="599px"
	 height="352px" viewBox="0 0 599 352" style="enable-background:new 0 0 599 352;" xml:space="preserve">
<style type="text/css">
	.st0{display:none;}
	.st1{display:inline;fill:none;stroke:#04D361;stroke-width:0.779;stroke-miterlimit:10;}
	.st2{display:inline;fill:#04D361;stroke:#04D361;}
	
		.st3{display:inline;fill:none;stroke:#FFFFFF;stroke-width:0.7047;stroke-linecap:round;stroke-linejoin:round;stroke-miterlimit:10;}
	.st4{display:inline;fill:#04D361;}
	
		.st5{display:inline;fill:none;stroke:#FFFFFF;stroke-width:1.1364;stroke-linecap:round;stroke-linejoin:round;stroke-miterlimit:10;}
	
		.st6{display:inline;fill:none;stroke:#FFFFFF;stroke-width:0.8174;stroke-linecap:round;stroke-linejoin:round;stroke-miterlimit:10;}
	
		.st7{display:inline;fill:none;stroke:#FFFFFF;stroke-width:0.7781;stroke-linecap:round;stroke-linejoin:round;stroke-miterlimit:10;}
	
		.st8{display:inline;fill:none;stroke:#FFFFFF;stroke-width:0.9754;stroke-linecap:round;stroke-linejoin:round;stroke-miterlimit:10;}
	
		.st9{display:inline;fill:none;stroke:#FFFFFF;stroke-width:0.8986;stroke-linecap:round;stroke-linejoin:round;stroke-miterlimit:10;}
	.st10{display:inline;fill:none;stroke:#04D361;stroke-width:2;stroke-linecap:round;stroke-linejoin:round;stroke-miterlimit:10;}
	.st11{display:inline;fill:#9871F5;stroke:#9871F5;}
	.st12{display:inline;fill:#FFFFFF;}
	.st13{display:inline;fill:#E6E6F0;}
	.st14{display:inline;opacity:0.24;}
	.st15{fill:#E6E6F0;stroke:#6842C2;stroke-width:2;stroke-miterlimit:10;}
	.st16{display:inline;fill:#F2F2FA;}
	.st17{display:inline;fill:#A3D1DE;filter:url(#Adobe_OpacityMaskFilter);}
	.st18{display:inline;mask:url(#mask0_1_);}
	.st19{fill:#FFCAD0;}
	.st20{fill:#04D361;}
	.st21{fill:#F2F2FA;}
	.st22{fill:#FBD5D9;}
	.st23{fill:#FFA4AD;}
	.st24{fill:#8F4A3F;}
	.st25{fill:#0E1235;}
	.st26{fill:#9A5449;}
	.st27{fill:none;stroke:#561E15;stroke-width:1.0274;stroke-linecap:round;stroke-linejoin:round;stroke-miterlimit:10;}
	.st28{fill:none;stroke:#D66D78;stroke-width:0.7706;stroke-linecap:round;stroke-linejoin:round;stroke-miterlimit:10;}
	.st29{fill:#03A14A;}
	.st30{fill:#04D361;stroke:#04D361;}
	.st31{fill:#FFFFFF;}
	.st32{display:inline;fill:#FEC9CF;}
	.st33{display:inline;fill:#6842C2;}
	.st34{display:inline;fill:#D8D8E3;}
	.st35{display:inline;fill:#194248;stroke:#C9C9D4;}
	.st36{display:inline;fill:none;stroke:#C9C9D4;stroke-linecap:round;stroke-linejoin:round;stroke-miterlimit:10;}
	.st37{display:inline;fill:#D38D00;}
	.st38{display:inline;fill:#FCDDC6;}
	.st39{display:inline;fill:#47248F;}
	.st40{display:inline;fill:#FFDFC8;}
	.st41{display:inline;fill:#DA9F74;}
	.st42{display:inline;fill:#60423D;}
	.st43{display:inline;fill:none;stroke:#561E15;stroke-linecap:round;stroke-linejoin:round;stroke-miterlimit:10;}
	
		.st44{display:inline;fill:none;stroke:#DA9F74;stroke-width:0.75;stroke-linecap:round;stroke-linejoin:round;stroke-miterlimit:10;}
	.st45{display:inline;fill:#BC8567;}
	.st46{display:inline;fill:#C9C9D4;stroke:#C9C9D4;}
	.st47{display:inline;fill:none;stroke:#C9C9D4;stroke-miterlimit:10;}
	.st48{display:inline;fill:#43302D;}
	.st49{display:inline;fill:#765441;}
	.st50{display:inline;fill:none;stroke:#43302D;stroke-linecap:round;stroke-linejoin:round;stroke-miterlimit:10;}
	
		.st51{display:inline;fill:none;stroke:#765441;stroke-width:0.75;stroke-linecap:round;stroke-linejoin:round;stroke-miterlimit:10;}
	.st52{display:inline;fill:none;stroke:#FFFFFF;stroke-width:2;stroke-linecap:round;stroke-linejoin:round;stroke-miterlimit:10;}
	
		.st53{display:inline;fill:none;stroke:#FFFFFF;stroke-width:2.2165;stroke-linecap:round;stroke-linejoin:round;stroke-miterlimit:10;}
	
		.st54{display:inline;fill:#6842C2;stroke:#FFFFFF;stroke-width:2;stroke-linecap:round;stroke-linejoin:round;stroke-miterlimit:10;}
</style>
<g id="Layer_1" class="st0">
	<path class="st1" d="M305.8,349.2c1.2-6.4,5-12.2,10.3-15.9"/>
	<path class="st1" d="M305.6,351c0.2-5.3,2.3-18.1,7.1-26.1"/>
	<path class="st1" d="M305.7,350.3c0.8-9.5,0.8-20-0.7-29.4"/>
	<path class="st2" d="M316.8,330.8L316.8,330.8c0,0.1-0.1,0.2-0.1,0.3c-0.7,1.2-1.3,2.3-2.1,3.4c0.2-0.1,0.4-0.2,0.7-0.3
		c0.1,0,0.2-0.1,0.4-0.1c0.3-0.1,0.5-0.2,0.8-0.3c0.4-0.1,0.8-0.3,1.1-0.3l0,0c1.7-0.2,3.4-0.2,5,0l0,0c1.3,0.2,2.6,0.4,3.8,0.7
		c0.4,0.1,0.8,0.2,1.2,0.2c1.7,0.3,3.3,0.6,4.9,0.6l0,0c0.9,0,1.9-0.1,2.8-0.4c0.8-0.3,1.5-0.8,1.8-1.6l0,0c0.5-1.2,0-2.8-1.1-3.7
		l0,0c-1.1-0.9-2.6-1.3-4.2-1.5l0,0c-0.6-0.1-1.1-0.1-1.7-0.1c-0.2,0-0.4,0-0.7,0c-0.8,0-1.6-0.1-2.5-0.3l0,0
		c-0.5-0.1-1-0.2-1.4-0.3c-0.1,0-0.1,0-0.2-0.1c-0.4-0.1-0.8-0.2-1.2-0.3c-0.9-0.2-1.8-0.3-2.6-0.2L316.8,330.8z M316.8,330.8
		L316.8,330.8 M316.8,330.8L316.8,330.8 M316.8,330.8c1.1-2,2.6-3.9,4.6-4.3L316.8,330.8z"/>
	<path class="st2" d="M312.1,326c0.6-0.5,1.2-1.2,1.8-1.9c0.1-0.1,0.2-0.2,0.2-0.3c0.7-0.8,1.5-1.7,2.4-2.4c2.4-1.9,5.2-3.3,8.3-3.6
		L312.1,326z M312.1,326c0-0.2,0.1-0.4,0.1-0.6c0.2-0.8,0.6-1.8,1.1-2.9c0.7-1.6,1.5-3.2,1.9-4.2c0.2-0.3,0.3-0.6,0.3-0.7
		c1.6-3.4,4-6.6,7.4-7.5l0,0c1.4-0.4,2.9-0.4,4.5-0.2c0.5,0,1.1,0.1,1.6,0.2c1,0.1,2.1,0.2,3.2,0.3h0c0.5,0,1,0,1.5,0
		c0.2,0,0.5,0,0.7,0c0.7,0,1.4,0,2.1,0.1c1.4,0.2,2.7,0.8,3.4,1.9l0,0c0.5,0.8,0.5,1.9,0.2,2.9c-0.3,1-1,1.9-1.9,2.5
		c-1.8,1.1-4.1,1.2-6.4,1c-0.7-0.1-1.3-0.2-1.9-0.3c-0.5-0.1-1-0.1-1.5-0.2c-1.2-0.1-2.4-0.2-3.6-0.1L312.1,326z M312.1,326.6
		C312.1,326.6,312.1,326.6,312.1,326.6L312.1,326.6z"/>
	<path class="st2" d="M307.2,311.9L307.2,311.9c0.3,1.8,0,3.6-0.6,5.4c0,0.1-0.1,0.3-0.1,0.5c-0.2,0.6-0.4,1.3-0.7,2.1
		c-0.2,0.5-0.4,0.9-0.6,1.3c-0.1,0.2-0.2,0.3-0.3,0.4c-0.1,0.1-0.1,0.1-0.1,0.1h0c-0.1,0-0.3,0-0.7-0.2c-0.3-0.2-0.7-0.4-1-0.7
		c-0.7-0.6-1.4-1.3-1.7-1.6c-1-1.1-1.8-2.3-2.3-3.7l0,0c-0.6-1.6-0.8-3.3-1-5c0,0,0-0.1,0-0.1c-0.2-1.7-0.4-3.5-1-5.1l0,0
		c-0.7-1.9-1.8-3.6-2.9-5.2c-0.3-0.4-0.6-0.8-0.8-1.3c-1.3-2.1-2.4-4.2-2.4-6.5c0-2.3,1.5-4.6,3.6-5h0c1.4-0.2,2.9,0.3,4.1,1.3h0
		c1.7,1.3,3,3.2,3.5,5.3c0.3,1.3,0.4,2.6,0.4,4l0,0.1c0.1,1.3,0.1,2.8,0.5,4.1c0.4,1.7,1.3,3.3,2,4.8c0.1,0.1,0.1,0.2,0.2,0.3
		C306.2,308.6,307,310.2,307.2,311.9z"/>
	<path class="st1" d="M305.6,349.4c-0.6-8.4-2.8-17.8-7.4-24.8"/>
	<path class="st2" d="M297,318.4L297,318.4c0.7,1.9,1.1,3.8,1.4,5.8l0,0c0,0.1,0,0.2,0.1,0.4c0,0.1,0,0.1,0,0.1
		c0,0.2,0.1,0.4,0.1,0.6c0,0.2,0,0.3,0,0.4c0,0.1-0.1,0.1-0.1,0.1l0,0c0,0,0,0-0.2,0c-0.1,0-0.3-0.1-0.5-0.2
		c-0.4-0.2-0.8-0.5-0.9-0.7c-0.3-0.3-0.6-0.7-0.9-1.1c-0.1-0.1-0.2-0.3-0.3-0.4c-0.2-0.3-0.4-0.5-0.6-0.8v0c-2.7-3.3-7-4.9-11.1-5.5
		c-2.1-0.3-4.2-0.4-6.2-0.4c-0.5,0-1.1,0-1.6,0c-1.5,0-3,0-4.5-0.1h0c-0.9,0-1.8-0.1-2.4-0.6c-0.8-0.6-1.2-1.8-0.9-2.9
		c0.2-1.1,1-2,1.9-2.8l0,0c2-1.7,4.7-2.6,7.4-2.8c2.7-0.2,5.5,0.3,8.1,1l0,0c2.6,0.7,5.1,1.6,7.1,3.3
		C294.8,313.6,296.1,315.9,297,318.4z"/>
	<path class="st1" d="M305.4,350.3c-0.4-7.3-3.6-14.4-9-19.4"/>
	<path class="st2" d="M293.7,327.1c-1.8-1-3.9-1.6-6-2.2L293.7,327.1z M293.7,327.1c0.1,0.1,0.3,0.1,0.4,0.2h0l0,0
		c0.8,0.5,1.3,1.2,1.9,2.1c0.1,0.1,0.2,0.3,0.3,0.6c0,0.1,0.1,0.2,0.1,0.3c0.1,0.2,0.2,0.4,0.3,0.7c0,0.1,0.1,0.1,0.1,0.2
		c-2.5-0.7-5.2-0.7-7.6-0.6h0l0,0 M293.7,327.1l-4.4,3.5 M289.3,330.6c-3.3,0-6.5,0.6-9.5,1.8l0,0c-0.4,0.2-0.8,0.3-1.2,0.5
		c-1.5,0.6-2.9,1.2-4.4,1.3c-0.5,0-1,0-1.5-0.2c-0.4-0.2-0.7-0.4-0.8-0.8c-0.2-0.6,0.1-1.3,0.6-1.9l0,0 M289.3,330.6l-16.7,0.6
		 M272.5,331.2L272.5,331.2 M272.5,331.2L272.5,331.2 M272.5,331.2c1-1.4,2.3-2.5,3.7-3.7 M272.5,331.2l3.7-3.7 M276.2,327.5
		c1.8-1.5,3.5-2.9,5.6-3.4L276.2,327.5z M297.5,331.4c-0.2-0.4-0.4-0.9-0.6-1.3c-0.2-0.4-0.4-0.8-0.5-1c-0.6-0.9-1.2-1.8-2.1-2.3
		c-0.1-0.1-0.3-0.2-0.4-0.2L297.5,331.4z M281.8,324.2c1.9-0.4,3.9,0.2,5.9,0.7L281.8,324.2z"/>
	<path class="st2" d="M527.6,320.7L527.6,320.7c-1.1,1.1-2.4,1.7-3.7,2.2c-0.3,0.1-0.6,0.2-0.9,0.4c-1,0.4-1.9,0.7-2.8,1.2
		c-2.5,1.4-4.3,4-5.4,6.8c0,0,0,0.1,0,0.1c-0.4,1-1,2.5-1.3,4c-0.2,0.8-0.3,1.5-0.2,2.1c0,0.6,0.2,1.2,0.5,1.5l0,0
		c0.6,0.8,1.8,1,3.1,0.8c1.4-0.2,2.8-0.8,3.8-1.3h0c0.4-0.2,0.8-0.3,1.2-0.5c2-0.9,4.1-1.8,6.4-1.9c2.4-0.1,4.7,0.8,6.7,1.6l0.1,0
		c2.1,0.8,4.1,1.6,6.2,1.6c2.1,0,4.4-1,5.4-2.9c0.4-0.8,0.6-1.7,0.8-2.7c0-0.2,0.1-0.4,0.1-0.5c0.2-1.1,0.5-2.4,1.4-3.3h0
		c0.9-1,2.1-1.4,3.3-1.6c0.9-0.1,1.8-0.1,2.6-0.1c0.3,0,0.6,0,0.9,0h0c2.4-0.1,4.9-0.7,6.7-2.3l0,0c1.9-1.6,3-4.1,2.4-6.3h0
		c-0.5-1.8-2-3-3.5-4.3v0c-2.2-1.8-4.4-3.4-7-3.3c-0.9,0.1-1.8,0.4-2.8,0.7l-0.1,0c-1,0.3-2.1,0.7-3.2,0.7c-1.4,0-2.7-0.4-3.8-1
		c-0.9-0.4-1.7-1-2.5-1.5c-0.2-0.2-0.5-0.3-0.7-0.5c-2.1-1.3-4.5-2.3-6.6-1.3L527.6,320.7z M527.6,320.7c1.5-1.5,2.2-3.6,2.8-5.5
		 M527.6,320.7l2.8-5.5 M530.4,315.2c0.1-0.3,0.2-0.5,0.3-0.8 M530.4,315.2l0.3-0.8 M530.6,314.4c0.7-2.1,1.7-4.2,3.6-5.1
		L530.6,314.4z"/>
	<path class="st3" d="M513.6,339.1c12.1-10.4,26.3-17.3,41.6-20.3"/>
	<path class="st4" d="M525.6,323c0.3-3.4-0.4-7,0.8-10.3c2-5.8,9-8.8,10.8-14.7c2.1-7-4.3-14.2-3.2-21.5c0.5-3.1,2.2-5.8,3.3-8.6
		c1.1-2.9,1.4-6.5-0.7-8.8c-2.2-2.4-6.3-2.1-8.9-0.2c-2.6,1.9-4.2,4.9-5.4,7.9c-1.2,3-2.3,6.1-4.4,8.6c-3.8,4.5-10.6,6.5-12.7,12.1
		c-2.1,5.6,1.9,11.6,2.6,17.6c0.5,4.5-0.8,9-2.1,13.4c-1.2,4.4-2.3,9.1-1.2,13.5c1.5,5.9,6.8,9.6,11.9,5.9
		C521.3,334.2,525.1,329.5,525.6,323z"/>
	<path class="st5" d="M513.1,339.4c-2-21,2.6-43.8,13.4-62"/>
	<path class="st4" d="M499.6,331.4c-2.2-3.1-3.5-7-6.5-9.4c-3.4-2.7-8.2-2.8-12.6-3.1c-4.4-0.4-9.3-1.6-11.4-5.5
		c-1.1-2.1-1.1-4.7-1.9-7c-0.9-2.5-2.6-4.6-3.8-6.9c-1.2-2.3-1.9-5.3-0.4-7.6c1.4-2.3,4.6-2.9,7.2-2.2c2.6,0.7,4.7,2.5,6.6,4.4
		c1.9,1.9,3.8,3.9,6.2,5.1c3.9,2,8.6,1.6,13.1,1.5c4.4-0.2,9.3,0,12.7,2.8c2.8,2.3,4.1,6,5.3,9.5c1.7,5,3.4,9.9,5,14.9
		c1,3.1,2.9,7.8-0.3,10.2C513.1,342.3,502.9,336,499.6,331.4z"/>
	<path class="st6" d="M516.9,338.2c-7-16.4-21.9-30.3-39.8-36.4"/>
	<path class="st4" d="M111.4,337.5c2-3,3.2-6.9,5.9-9.1c3.1-2.5,7.4-2.2,11.3-2.2c3.9,0,8.4-0.9,10.2-4.7c1-2.1,1-4.7,1.8-6.9
		c0.8-2.5,2.4-4.4,3.5-6.7c1.1-2.3,1.7-5.3,0.5-7.6c-1.3-2.4-4.1-3.3-6.4-2.7c-2.3,0.5-4.2,2.2-6,4c-1.7,1.7-3.4,3.6-5.6,4.7
		c-3.6,1.8-7.8,1-11.7,0.5c-4-0.5-8.3-0.7-11.4,1.9c-2.5,2.1-3.7,5.8-4.8,9.2c-1.5,4.9-3.1,9.8-4.6,14.7c-0.9,3-2.7,7.6,0.2,10.3
		C99.2,347.4,108.4,341.8,111.4,337.5z"/>
	<path class="st7" d="M95.8,343c6.4-16,19.9-29,35.9-33.9"/>
	<path class="st4" d="M87,329.1c-0.2-3.2,0.3-6.5-0.6-9.5c-1.6-5.3-7.2-8.1-8.6-13.5c-1.7-6.5,3.4-13.1,2.6-19.8
		c-0.4-2.8-1.8-5.3-2.7-8c-0.9-2.7-1.1-6,0.6-8.1c1.8-2.2,5-1.9,7.1-0.2c2.1,1.7,3.3,4.5,4.3,7.3c1,2.8,1.9,5.7,3.5,7.9
		c3,4.2,8.5,6,10.2,11.1c1.7,5.2-1.5,10.7-2.1,16.2c-0.4,4.2,0.7,8.3,1.7,12.4c1,4,1.9,8.3,0.9,12.4c-1.2,5.4-5.4,8.9-9.5,5.4
		C90.4,339.3,87.4,335,87,329.1z"/>
	<path class="st8" d="M97,344.1c1.6-19.3-2.1-40.3-10.7-57"/>
	<path class="st2" d="M35.2,313.6c-0.7,3.2,0.8,7,3.2,9.4c2.4,2.4,5.6,3.5,8.5,3.8l7.8,2.6l0.4-0.3c0,0,0,0,0,0
		c-1.1-1.4-2.5-2-3.9-2.3c-1-0.2-2.1-0.3-3.2-0.4c-0.4,0-0.7-0.1-1.1-0.1h0c-2.9-0.3-5.9-1.3-8.2-3.6l0,0c-2.3-2.3-3.8-5.9-3.1-8.9
		 M35.2,313.6l0.5,0.1c0,0,0,0,0,0 M35.2,313.6l0.5,0.1l0,0 M35.2,313.6c0.6-2.6,2.5-4.3,4.4-5.9c2.5-2.2,5.4-4.4,8.8-4
		c1.2,0.2,2.4,0.7,3.6,1.2c1.2,0.5,2.5,1.1,3.8,1.2 M35.7,313.7c0.6-2.4,2.4-4,4.2-5.6l0,0c2.6-2.2,5.3-4.3,8.4-3.8l0,0
		c1.1,0.2,2.3,0.6,3.5,1.2l0.1,0c1.2,0.5,2.5,1.1,3.8,1.2 M55.7,306.6l0.1-0.5 M55.7,306.6c1.7,0.2,3.2-0.3,4.6-1
		c1-0.5,2.1-1.2,3-1.9c0.3-0.2,0.6-0.4,0.9-0.6l0,0c2.5-1.7,5.4-2.8,8-1.3 M55.7,306.6C55.7,306.6,55.7,306.6,55.7,306.6l0.1-0.5
		 M55.7,306.1c2.7,0.3,5-1.3,7.2-2.8c0.3-0.2,0.6-0.4,0.9-0.6c2.5-1.7,5.7-3,8.6-1.3 M72.2,301.9C72.2,301.9,72.2,301.9,72.2,301.9
		l0.3-0.4 M72.2,301.9c1.1,0.7,2,1.8,2.8,3.1c0.7,1.3,1.3,2.8,1.7,4.3l0,0c0.1,0.4,0.2,0.7,0.3,1.1c0.8,2.6,1.6,5.4,3.4,7.5
		 M72.2,301.9C72.2,301.9,72.2,301.9,72.2,301.9l0.3-0.4 M72.4,301.4c2.5,1.5,3.8,4.6,4.7,7.6l3.3,8.8 M80.5,317.8
		c1.3,1.5,2.9,2.4,4.5,3.2c0.4,0.2,0.8,0.4,1.2,0.6c1.2,0.6,2.4,1.1,3.5,1.9l0,0c3.1,2.1,5.4,5.8,6.8,9.7c0,0.1,0,0.1,0.1,0.2
		c0.5,1.4,1.3,3.5,1.7,5.5c0.2,1.1,0.4,2.1,0.3,3c0,0.9-0.2,1.6-0.5,2.1l0,0c-0.8,1.1-2.1,1.3-3.8,0.8c-1.7-0.4-3.4-1.3-4.7-2l0,0
		c-0.5-0.2-0.9-0.5-1.4-0.7c-1-0.5-2-1.1-3-1.6c-1.5-0.7-3.1-1.3-4.7-1.5h0c-2.9-0.3-5.6,0.7-8,1.6l-0.1,0c-2.5,1-4.9,1.9-7.5,1.7
		c-2.6-0.2-5.4-1.7-6.7-4.5L80.5,317.8z M80.5,317.8l0.4-0.3L80.5,317.8C80.5,317.8,80.5,317.8,80.5,317.8z M89.1,343.2
		c-0.5-0.2-0.9-0.5-1.4-0.8c-2.5-1.3-4.9-2.7-7.5-3c-2.7-0.3-5.3,0.6-7.8,1.6l-0.1,0c-2.4,1-4.9,1.9-7.6,1.8
		c-2.7-0.2-5.8-1.8-7.1-4.7L89.1,343.2z M89.1,343.2c2.5,1.3,7.2,3.8,9.1,1L89.1,343.2z"/>
	<path class="st9" d="M97.7,343.9c-14.9-15-32.1-25.5-50.6-30.6"/>
	<path class="st10" d="M523.8,71.6c0,2.9-2.3,5.2-5.2,5.2c-2.9,0-5.2-2.3-5.2-5.2c0-2.9,2.3-5.2,5.2-5.2
		C521.5,66.4,523.8,68.7,523.8,71.6z"/>
	<path class="st10" d="M522.4,75.2l3.7,3.7"/>
	<path class="st10" d="M319.1,1l5.5,5.5"/>
	<path class="st10" d="M324.6,1l-5.5,5.5"/>
	<path class="st10" d="M398,318.5l5.5,5.5"/>
	<path class="st10" d="M403.5,318.5L398,324"/>
	<path class="st10" d="M48.5,245.4v7.8"/>
	<path class="st10" d="M52.4,249.3h-7.8"/>
	<path class="st10" d="M31.6,185.5c0,2.6-2.1,4.7-4.7,4.7c-2.6,0-4.7-2.1-4.7-4.7c0-2.6,2.1-4.7,4.7-4.7
		C29.5,180.8,31.6,182.9,31.6,185.5z"/>
	<path class="st10" d="M228,300.1c0,2.6-2.1,4.7-4.7,4.7c-2.6,0-4.7-2.1-4.7-4.7c0-2.6,2.1-4.7,4.7-4.7
		C225.9,295.4,228,297.5,228,300.1z"/>
	<path class="st10" d="M540.3,214.8c0,2.6-2.1,4.7-4.7,4.7c-2.6,0-4.7-2.1-4.7-4.7c0-2.6,2.1-4.7,4.7-4.7
		C538.2,210.1,540.3,212.2,540.3,214.8z"/>
	<path class="st11" d="M2.9,102.5c0,0.7-0.5,1.2-1.2,1.2s-1.2-0.5-1.2-1.2c0-0.7,0.5-1.2,1.2-1.2S2.9,101.8,2.9,102.5z"/>
	<path class="st11" d="M14.9,102.5c0,0.7-0.5,1.2-1.2,1.2c-0.7,0-1.2-0.5-1.2-1.2c0-0.7,0.5-1.2,1.2-1.2S14.9,101.8,14.9,102.5z"/>
	<path class="st11" d="M26.9,102.5c0,0.7-0.5,1.2-1.2,1.2s-1.2-0.5-1.2-1.2c0-0.7,0.5-1.2,1.2-1.2S26.9,101.8,26.9,102.5z"/>
	<path class="st11" d="M38.8,102.5c0,0.7-0.5,1.2-1.2,1.2c-0.7,0-1.2-0.5-1.2-1.2c0-0.7,0.5-1.2,1.2-1.2
		C38.3,101.2,38.8,101.8,38.8,102.5z"/>
	<path class="st11" d="M50.8,102.5c0,0.7-0.5,1.2-1.2,1.2s-1.2-0.5-1.2-1.2c0-0.7,0.5-1.2,1.2-1.2S50.8,101.8,50.8,102.5z"/>
	<path class="st11" d="M62.8,102.5c0,0.7-0.5,1.2-1.2,1.2s-1.2-0.5-1.2-1.2c0-0.7,0.5-1.2,1.2-1.2S62.8,101.8,62.8,102.5z"/>
	<path class="st11" d="M2.9,114.4c0,0.7-0.5,1.2-1.2,1.2s-1.2-0.5-1.2-1.2c0-0.7,0.5-1.2,1.2-1.2S2.9,113.8,2.9,114.4z"/>
	<path class="st11" d="M14.9,114.4c0,0.7-0.5,1.2-1.2,1.2c-0.7,0-1.2-0.5-1.2-1.2c0-0.7,0.5-1.2,1.2-1.2
		C14.4,113.2,14.9,113.8,14.9,114.4z"/>
	<path class="st11" d="M26.9,114.4c0,0.7-0.5,1.2-1.2,1.2s-1.2-0.5-1.2-1.2c0-0.7,0.5-1.2,1.2-1.2S26.9,113.8,26.9,114.4z"/>
	<path class="st11" d="M38.8,114.4c0,0.7-0.5,1.2-1.2,1.2c-0.7,0-1.2-0.5-1.2-1.2c0-0.7,0.5-1.2,1.2-1.2
		C38.3,113.2,38.8,113.8,38.8,114.4z"/>
	<path class="st11" d="M50.8,114.4c0,0.7-0.5,1.2-1.2,1.2s-1.2-0.5-1.2-1.2c0-0.7,0.5-1.2,1.2-1.2S50.8,113.8,50.8,114.4z"/>
	<path class="st11" d="M62.8,114.4c0,0.7-0.5,1.2-1.2,1.2s-1.2-0.5-1.2-1.2c0-0.7,0.5-1.2,1.2-1.2S62.8,113.8,62.8,114.4z"/>
	<path class="st11" d="M2.9,126.4c0,0.7-0.5,1.2-1.2,1.2s-1.2-0.5-1.2-1.2c0-0.7,0.5-1.2,1.2-1.2S2.9,125.8,2.9,126.4z"/>
	<path class="st11" d="M14.9,126.4c0,0.7-0.5,1.2-1.2,1.2c-0.7,0-1.2-0.5-1.2-1.2c0-0.7,0.5-1.2,1.2-1.2S14.9,125.8,14.9,126.4z"/>
	<path class="st11" d="M26.9,126.4c0,0.7-0.5,1.2-1.2,1.2s-1.2-0.5-1.2-1.2c0-0.7,0.5-1.2,1.2-1.2S26.9,125.8,26.9,126.4z"/>
	<path class="st11" d="M38.8,126.4c0,0.7-0.5,1.2-1.2,1.2c-0.7,0-1.2-0.5-1.2-1.2c0-0.7,0.5-1.2,1.2-1.2
		C38.3,125.2,38.8,125.8,38.8,126.4z"/>
	<path class="st11" d="M50.8,126.4c0,0.7-0.5,1.2-1.2,1.2s-1.2-0.5-1.2-1.2c0-0.7,0.5-1.2,1.2-1.2S50.8,125.8,50.8,126.4z"/>
	<path class="st11" d="M62.8,126.4c0,0.7-0.5,1.2-1.2,1.2s-1.2-0.5-1.2-1.2c0-0.7,0.5-1.2,1.2-1.2S62.8,125.8,62.8,126.4z"/>
	<path class="st11" d="M2.9,138.4c0,0.7-0.5,1.2-1.2,1.2s-1.2-0.5-1.2-1.2c0-0.7,0.5-1.2,1.2-1.2S2.9,137.7,2.9,138.4z"/>
	<path class="st11" d="M14.9,138.4c0,0.7-0.5,1.2-1.2,1.2s-1.2-0.5-1.2-1.2c0-0.7,0.5-1.2,1.2-1.2S14.9,137.7,14.9,138.4z"/>
	<path class="st11" d="M26.9,138.4c0,0.7-0.5,1.2-1.2,1.2s-1.2-0.5-1.2-1.2c0-0.7,0.5-1.2,1.2-1.2S26.9,137.7,26.9,138.4z"/>
	<path class="st11" d="M38.8,138.4c0,0.7-0.5,1.2-1.2,1.2c-0.7,0-1.2-0.5-1.2-1.2c0-0.7,0.5-1.2,1.2-1.2
		C38.3,137.2,38.8,137.7,38.8,138.4z"/>
	<path class="st11" d="M50.8,138.4c0,0.7-0.5,1.2-1.2,1.2s-1.2-0.5-1.2-1.2c0-0.7,0.5-1.2,1.2-1.2S50.8,137.7,50.8,138.4z"/>
	<path class="st11" d="M62.8,138.4c0,0.7-0.5,1.2-1.2,1.2s-1.2-0.5-1.2-1.2c0-0.7,0.5-1.2,1.2-1.2S62.8,137.7,62.8,138.4z"/>
	<path class="st11" d="M187.6,328.2c0,0.7-0.5,1.2-1.2,1.2s-1.2-0.5-1.2-1.2c0-0.7,0.5-1.2,1.2-1.2S187.6,327.5,187.6,328.2z"/>
	<path class="st11" d="M199.6,328.2c0,0.7-0.5,1.2-1.2,1.2c-0.7,0-1.2-0.5-1.2-1.2c0-0.7,0.5-1.2,1.2-1.2
		C199.1,327,199.6,327.5,199.6,328.2z"/>
	<path class="st11" d="M211.6,328.2c0,0.7-0.5,1.2-1.2,1.2c-0.7,0-1.2-0.5-1.2-1.2c0-0.7,0.5-1.2,1.2-1.2
		C211,327,211.6,327.5,211.6,328.2z"/>
	<path class="st11" d="M223.5,328.2c0,0.7-0.5,1.2-1.2,1.2c-0.7,0-1.2-0.5-1.2-1.2c0-0.7,0.5-1.2,1.2-1.2
		C223,327,223.5,327.5,223.5,328.2z"/>
	<path class="st11" d="M235.5,328.2c0,0.7-0.5,1.2-1.2,1.2s-1.2-0.5-1.2-1.2c0-0.7,0.5-1.2,1.2-1.2S235.5,327.5,235.5,328.2z"/>
	<path class="st11" d="M187.6,340.2c0,0.7-0.5,1.2-1.2,1.2s-1.2-0.5-1.2-1.2c0-0.7,0.5-1.2,1.2-1.2S187.6,339.5,187.6,340.2z"/>
	<path class="st11" d="M199.6,340.2c0,0.7-0.5,1.2-1.2,1.2c-0.7,0-1.2-0.5-1.2-1.2c0-0.7,0.5-1.2,1.2-1.2
		C199.1,339,199.6,339.5,199.6,340.2z"/>
	<path class="st11" d="M211.6,340.2c0,0.7-0.5,1.2-1.2,1.2c-0.7,0-1.2-0.5-1.2-1.2c0-0.7,0.5-1.2,1.2-1.2
		C211,339,211.6,339.5,211.6,340.2z"/>
	<path class="st11" d="M223.5,340.2c0,0.7-0.5,1.2-1.2,1.2c-0.7,0-1.2-0.5-1.2-1.2c0-0.7,0.5-1.2,1.2-1.2
		C223,339,223.5,339.5,223.5,340.2z"/>
	<path class="st11" d="M235.5,340.2c0,0.7-0.5,1.2-1.2,1.2s-1.2-0.5-1.2-1.2c0-0.7,0.5-1.2,1.2-1.2S235.5,339.5,235.5,340.2z"/>
	<path class="st11" d="M490.9,28.4c0,0.7-0.5,1.2-1.2,1.2c-0.7,0-1.2-0.5-1.2-1.2c0-0.7,0.5-1.2,1.2-1.2
		C490.4,27.2,490.9,27.7,490.9,28.4z"/>
	<path class="st11" d="M502.9,28.4c0,0.7-0.5,1.2-1.2,1.2c-0.7,0-1.2-0.5-1.2-1.2c0-0.7,0.5-1.2,1.2-1.2
		C502.4,27.2,502.9,27.7,502.9,28.4z"/>
	<path class="st11" d="M514.9,28.4c0,0.7-0.5,1.2-1.2,1.2c-0.7,0-1.2-0.5-1.2-1.2c0-0.7,0.5-1.2,1.2-1.2
		C514.3,27.2,514.9,27.7,514.9,28.4z"/>
	<path class="st11" d="M490.9,40.4c0,0.7-0.5,1.2-1.2,1.2c-0.7,0-1.2-0.5-1.2-1.2s0.5-1.2,1.2-1.2C490.4,39.2,490.9,39.7,490.9,40.4
		z"/>
	<path class="st11" d="M502.9,40.4c0,0.7-0.5,1.2-1.2,1.2c-0.7,0-1.2-0.5-1.2-1.2c0-0.7,0.5-1.2,1.2-1.2
		C502.4,39.2,502.9,39.7,502.9,40.4z"/>
	<path class="st11" d="M514.9,40.4c0,0.7-0.5,1.2-1.2,1.2c-0.7,0-1.2-0.5-1.2-1.2c0-0.7,0.5-1.2,1.2-1.2
		C514.3,39.2,514.9,39.7,514.9,40.4z"/>
	<path class="st11" d="M177.6,5.7c0,0.7-0.5,1.2-1.2,1.2s-1.2-0.5-1.2-1.2c0-0.7,0.5-1.2,1.2-1.2S177.6,5,177.6,5.7z"/>
	<path class="st11" d="M189.5,5.7c0,0.7-0.5,1.2-1.2,1.2s-1.2-0.5-1.2-1.2s0.5-1.2,1.2-1.2S189.5,5,189.5,5.7z"/>
	<path class="st11" d="M201.5,5.7c0,0.7-0.5,1.2-1.2,1.2c-0.7,0-1.2-0.5-1.2-1.2s0.5-1.2,1.2-1.2C201,4.5,201.5,5,201.5,5.7z"/>
	<path class="st11" d="M177.6,17.7c0,0.7-0.5,1.2-1.2,1.2s-1.2-0.5-1.2-1.2s0.5-1.2,1.2-1.2S177.6,17,177.6,17.7z"/>
	<path class="st11" d="M189.5,17.7c0,0.7-0.5,1.2-1.2,1.2c-0.7,0-1.2-0.5-1.2-1.2c0-0.7,0.5-1.2,1.2-1.2S189.5,17,189.5,17.7z"/>
	<path class="st11" d="M201.5,17.7c0,0.7-0.5,1.2-1.2,1.2c-0.7,0-1.2-0.5-1.2-1.2c0-0.7,0.5-1.2,1.2-1.2
		C201,16.5,201.5,17,201.5,17.7z"/>
	<path class="st11" d="M598.5,190.4c0,0.7-0.5,1.2-1.2,1.2s-1.2-0.5-1.2-1.2c0-0.7,0.5-1.2,1.2-1.2S598.5,189.7,598.5,190.4z"/>
	<path class="st11" d="M598.5,202.4c0,0.7-0.5,1.2-1.2,1.2s-1.2-0.5-1.2-1.2c0-0.7,0.5-1.2,1.2-1.2S598.5,201.7,598.5,202.4z"/>
	<path class="st11" d="M598.5,214.4c0,0.7-0.5,1.2-1.2,1.2s-1.2-0.5-1.2-1.2s0.5-1.2,1.2-1.2S598.5,213.7,598.5,214.4z"/>
	<path class="st11" d="M598.5,226.4c0,0.7-0.5,1.2-1.2,1.2s-1.2-0.5-1.2-1.2c0-0.7,0.5-1.2,1.2-1.2S598.5,225.7,598.5,226.4z"/>
	<path class="st11" d="M598.5,238.3c0,0.7-0.5,1.2-1.2,1.2s-1.2-0.5-1.2-1.2c0-0.7,0.5-1.2,1.2-1.2S598.5,237.7,598.5,238.3z"/>
	<path class="st11" d="M598.5,250.3c0,0.7-0.5,1.2-1.2,1.2s-1.2-0.5-1.2-1.2c0-0.7,0.5-1.2,1.2-1.2S598.5,249.7,598.5,250.3z"/>
	<path class="st11" d="M598.5,262.3c0,0.7-0.5,1.2-1.2,1.2s-1.2-0.5-1.2-1.2c0-0.7,0.5-1.2,1.2-1.2S598.5,261.6,598.5,262.3z"/>
	<path class="st11" d="M586.5,190.4c0,0.7-0.5,1.2-1.2,1.2s-1.2-0.5-1.2-1.2c0-0.7,0.5-1.2,1.2-1.2S586.5,189.7,586.5,190.4z"/>
	<path class="st11" d="M586.5,202.4c0,0.7-0.5,1.2-1.2,1.2s-1.2-0.5-1.2-1.2c0-0.7,0.5-1.2,1.2-1.2S586.5,201.7,586.5,202.4z"/>
	<path class="st11" d="M586.5,214.4c0,0.7-0.5,1.2-1.2,1.2s-1.2-0.5-1.2-1.2s0.5-1.2,1.2-1.2S586.5,213.7,586.5,214.4z"/>
	<path class="st11" d="M586.5,226.4c0,0.7-0.5,1.2-1.2,1.2s-1.2-0.5-1.2-1.2c0-0.7,0.5-1.2,1.2-1.2S586.5,225.7,586.5,226.4z"/>
	<path class="st11" d="M586.5,238.3c0,0.7-0.5,1.2-1.2,1.2s-1.2-0.5-1.2-1.2c0-0.7,0.5-1.2,1.2-1.2S586.5,237.7,586.5,238.3z"/>
	<path class="st11" d="M586.5,250.3c0,0.7-0.5,1.2-1.2,1.2s-1.2-0.5-1.2-1.2c0-0.7,0.5-1.2,1.2-1.2S586.5,249.7,586.5,250.3z"/>
	<path class="st11" d="M586.5,262.3c0,0.7-0.5,1.2-1.2,1.2s-1.2-0.5-1.2-1.2c0-0.7,0.5-1.2,1.2-1.2S586.5,261.6,586.5,262.3z"/>
	<path class="st11" d="M574.6,190.4c0,0.7-0.5,1.2-1.2,1.2c-0.7,0-1.2-0.5-1.2-1.2c0-0.7,0.5-1.2,1.2-1.2
		C574,189.2,574.6,189.7,574.6,190.4z"/>
	<path class="st11" d="M574.6,202.4c0,0.7-0.5,1.2-1.2,1.2c-0.7,0-1.2-0.5-1.2-1.2c0-0.7,0.5-1.2,1.2-1.2
		C574,201.2,574.6,201.7,574.6,202.4z"/>
	<path class="st11" d="M574.6,214.4c0,0.7-0.5,1.2-1.2,1.2c-0.7,0-1.2-0.5-1.2-1.2s0.5-1.2,1.2-1.2
		C574,213.2,574.6,213.7,574.6,214.4z"/>
	<path class="st11" d="M574.6,226.4c0,0.7-0.5,1.2-1.2,1.2c-0.7,0-1.2-0.5-1.2-1.2c0-0.7,0.5-1.2,1.2-1.2
		C574,225.1,574.6,225.7,574.6,226.4z"/>
	<path class="st11" d="M574.6,238.3c0,0.7-0.5,1.2-1.2,1.2c-0.7,0-1.2-0.5-1.2-1.2c0-0.7,0.5-1.2,1.2-1.2
		C574,237.1,574.6,237.7,574.6,238.3z"/>
	<path class="st11" d="M574.6,250.3c0,0.7-0.5,1.2-1.2,1.2c-0.7,0-1.2-0.5-1.2-1.2c0-0.7,0.5-1.2,1.2-1.2
		C574,249.1,574.6,249.7,574.6,250.3z"/>
	<path class="st11" d="M574.6,262.3c0,0.7-0.5,1.2-1.2,1.2c-0.7,0-1.2-0.5-1.2-1.2c0-0.7,0.5-1.2,1.2-1.2
		C574,261.1,574.6,261.6,574.6,262.3z"/>
	<path class="st11" d="M562.6,190.4c0,0.7-0.5,1.2-1.2,1.2c-0.7,0-1.2-0.5-1.2-1.2c0-0.7,0.5-1.2,1.2-1.2
		C562,189.2,562.6,189.7,562.6,190.4z"/>
	<path class="st11" d="M562.6,202.4c0,0.7-0.5,1.2-1.2,1.2c-0.7,0-1.2-0.5-1.2-1.2c0-0.7,0.5-1.2,1.2-1.2
		C562,201.2,562.6,201.7,562.6,202.4z"/>
	<path class="st11" d="M562.6,214.4c0,0.7-0.5,1.2-1.2,1.2c-0.7,0-1.2-0.5-1.2-1.2s0.5-1.2,1.2-1.2
		C562,213.2,562.6,213.7,562.6,214.4z"/>
	<path class="st11" d="M562.6,226.4c0,0.7-0.5,1.2-1.2,1.2c-0.7,0-1.2-0.5-1.2-1.2c0-0.7,0.5-1.2,1.2-1.2
		C562,225.1,562.6,225.7,562.6,226.4z"/>
	<path class="st11" d="M562.6,238.3c0,0.7-0.5,1.2-1.2,1.2c-0.7,0-1.2-0.5-1.2-1.2c0-0.7,0.5-1.2,1.2-1.2
		C562,237.1,562.6,237.7,562.6,238.3z"/>
	<path class="st11" d="M562.6,250.3c0,0.7-0.5,1.2-1.2,1.2c-0.7,0-1.2-0.5-1.2-1.2c0-0.7,0.5-1.2,1.2-1.2
		C562,249.1,562.6,249.7,562.6,250.3z"/>
	<path class="st11" d="M562.6,262.3c0,0.7-0.5,1.2-1.2,1.2c-0.7,0-1.2-0.5-1.2-1.2c0-0.7,0.5-1.2,1.2-1.2
		C562,261.1,562.6,261.6,562.6,262.3z"/>
	<path class="st2" d="M459,261.8H148.3c-5.6,0-10.2-4.6-10.2-10.3V60c0-5.7,4.6-10.3,10.2-10.3h310.8c5.6,0,10.2,4.6,10.2,10.3
		v191.5C469.2,257.2,464.7,261.8,459,261.8z"/>
	<path class="st12" d="M458.6,253.3H148.7c-4.8,0-8.7-3.9-8.7-8.7V60.1c0-4.8,3.9-8.7,8.7-8.7h309.9c4.8,0,8.7,3.9,8.7,8.7v184.5
		C467.3,249.4,463.4,253.3,458.6,253.3z"/>
	<path class="st13" d="M356.7,68.6v130.2c0,3.9-3.2,7.1-7.1,7.1H153.9c-1.8,0-3.4-0.6-4.6-1.7c-1.5-1.3-2.5-3.2-2.5-5.4V68.6
		c0-3.9,3.2-7.1,7.1-7.1h195.7c1.8,0,3.4,0.6,4.6,1.7C355.7,64.5,356.7,66.4,356.7,68.6z"/>
	<path class="st13" d="M453.5,117.1h-81c-3.9,0-7.1-3.2-7.1-7.1V68.6c0-3.9,3.2-7.1,7.1-7.1h81c3.9,0,7.1,3.2,7.1,7.1V110
		C460.6,114,457.4,117.1,453.5,117.1z"/>
	<path class="st13" d="M453.5,182.6h-81c-3.9,0-7.1-3.2-7.1-7.1v-41.4c0-3.9,3.2-7.1,7.1-7.1h81c3.9,0,7.1,3.2,7.1,7.1v41.4
		C460.6,179.5,457.4,182.6,453.5,182.6z"/>
	<path class="st13" d="M453.5,244.7h-81c-3.9,0-7.1-3.2-7.1-7.1v-37.5c0-3.9,3.2-7.1,7.1-7.1h81c3.9,0,7.1,3.2,7.1,7.1v37.5
		C460.6,241.5,457.4,244.7,453.5,244.7z"/>
	<path class="st13" d="M253.8,219.8H149.4c-1.4,0-2.6-1.2-2.6-2.6c0-1.4,1.1-2.6,2.6-2.6h104.4c1.4,0,2.6,1.1,2.6,2.6
		C256.4,218.7,255.2,219.8,253.8,219.8z"/>
	<path class="st13" d="M259.9,244H149.5c-1.5,0-2.7-1.1-2.7-2.5v-10c0-1.4,1.2-2.5,2.7-2.5h110.4c1.5,0,2.7,1.1,2.7,2.5v10
		C262.6,242.9,261.4,244,259.9,244z"/>
	<path class="st13" d="M331.1,219.8h23c1.4,0,2.6-1.2,2.6-2.6c0-1.4-1.1-2.6-2.6-2.6h-23c-1.4,0-2.6,1.1-2.6,2.6
		C328.6,218.7,329.7,219.8,331.1,219.8z"/>
	<path class="st13" d="M292.2,219.8h23c1.4,0,2.6-1.2,2.6-2.6c0-1.4-1.1-2.6-2.6-2.6h-23c-1.4,0-2.6,1.1-2.6,2.6
		C289.6,218.7,290.8,219.8,292.2,219.8z"/>
	<path class="st13" d="M308.6,244.1h45.6c1.4,0,2.6-1.2,2.6-2.6v-10.3c0-1.4-1.1-2.6-2.6-2.6h-45.6c-1.4,0-2.6,1.1-2.6,2.6v10.3
		C306,243,307.1,244.1,308.6,244.1z"/>
	<g class="st14">
		<path class="st15" d="M412.7,104.1c7.9,0,14.4-6.4,14.4-14.4c0-7.9-6.4-14.4-14.4-14.4s-14.4,6.4-14.4,14.4
			C398.3,97.7,404.8,104.1,412.7,104.1z"/>
		<path class="st15" d="M418.6,88.3l-8.2-4.7c-0.9-0.5-2,0.1-2,1.2v9.5c0,1,1.1,1.7,2,1.2l8.2-4.7C419.5,90.2,419.5,88.9,418.6,88.3
			z"/>
	</g>
	<g class="st14">
		<path class="st15" d="M412.7,168.8c7.9,0,14.4-6.4,14.4-14.4c0-7.9-6.4-14.4-14.4-14.4s-14.4,6.4-14.4,14.4
			C398.3,162.3,404.8,168.8,412.7,168.8z"/>
		<path class="st15" d="M418.6,153l-8.2-4.7c-0.9-0.5-2,0.1-2,1.2v9.5c0,1,1.1,1.7,2,1.2l8.2-4.7C419.5,154.8,419.5,153.5,418.6,153
			z"/>
	</g>
	<g class="st14">
		<path class="st15" d="M412.7,232.8c7.9,0,14.4-6.4,14.4-14.4c0-7.9-6.4-14.4-14.4-14.4s-14.4,6.4-14.4,14.4
			C398.3,226.3,404.8,232.8,412.7,232.8z"/>
		<path class="st15" d="M418.6,217l-8.2-4.7c-0.9-0.5-2,0.1-2,1.2v9.5c0,1,1.1,1.7,2,1.2l8.2-4.7C419.5,218.8,419.5,217.5,418.6,217
			z"/>
	</g>
	<path class="st16" d="M354.2,63.2L149.3,204.2c-1.5-1.3-2.5-3.2-2.5-5.4V68.6c0-3.9,3.2-7.1,7.1-7.1h195.7
		C351.4,61.5,353,62.1,354.2,63.2z"/>
	<defs>
		<filter id="Adobe_OpacityMaskFilter" filterUnits="userSpaceOnUse" x="162.2" y="32.6" width="219.2" height="200.8">
			<feColorMatrix  type="matrix" values="1 0 0 0 0  0 1 0 0 0  0 0 1 0 0  0 0 0 1 0"/>
		</filter>
	</defs>
	<mask maskUnits="userSpaceOnUse" x="162.2" y="32.6" width="219.2" height="200.8" id="mask0_1_" style="display:inline;">
		<path style="fill:#A3D1DE;filter:url(#Adobe_OpacityMaskFilter);" d="M356.9,40.8v156.8c0,4.7-3.2,8.6-7.1,8.6H154.5
			c-1.8,0-3.4-0.8-4.6-2.1c-1.5-1.6-2.5-3.9-2.5-6.5V40.8c0-4.7,3.2-8.6,7.1-8.6h195.4c1.8,0,3.4,0.8,4.6,2.1
			C356,35.9,356.9,38.2,356.9,40.8z"/>
	</mask>
	<g class="st18">
		<path class="st19" d="M340.4,143c0,0,11.7-9.2,12-11.9c0.6-5,2.4-8.9,13.1-12.2c0,0,0.8,1.6-0.7,3.3c-1.6,1.9-2.9,2.5-2.9,2.5
			s2.8,1.1,7.1-2.2c4.2-3.3,6-6.2,7.8-5.5c0,0,2.1-1.9,3.1-1.6c0,0,0.7,0.2,0.6,1c1.6-0.3,1.3,4.5-1.6,8.4
			c-4.2,5.6-9.5,10.4-13.8,11.9c-3.2,1.2-16.6,14.8-16.6,14.8L340.4,143z"/>
		<path class="st20" d="M304.3,190.2c-5.1,1.7-33.4-41.9-33.4-41.9c-11-12.6-1.1-54.2,8.8-39.6c0,0,25.8,46.7,28.6,50.5
			C311.7,163.8,323.2,183.8,304.3,190.2z"/>
		<path class="st20" d="M272.4,233.5h-74.7c0,0-5.7-2.5-0.7-13.6c1.9-4.1,1.1-14.7,0.7-29.3c-0.6-28.8-9.2-76.6,1.4-82.1
			c6.3-3.3,19.7-7.6,29.4-10.6c0.6-0.2,1.1-0.3,1.7-0.5c5.7-1.7,9.7-2.8,9.7-2.8s4.7,0.7,14.3,3.5c0.5,0.2,1.1,0.3,1.6,0.5
			c2.5,0.8,5.3,1.6,8.3,2.7c16.7,5.7,14.8,3.7,17,24.6C283,142.5,272.4,233.5,272.4,233.5z"/>
		<path class="st21" d="M255.8,98.6c-0.2,3.5-1.8,6.7-4.2,9c-2.5,2.3-5.8,3.8-9.4,3.8c-7.5,0-13.5-6-13.7-13.4
			c0.6-0.2,1.1-0.3,1.7-0.5c5.7-1.7,9.7-2.8,9.7-2.8s4.7,0.7,14.3,3.5C254.7,98.3,255.3,98.4,255.8,98.6z"/>
		<path class="st22" d="M254.2,68.7L253,91.4l-0.3,6.5c-0.1,2.8-1.4,5.2-3.2,7c-1.9,1.8-4.4,2.8-7.1,2.8c-5.8,0-10.5-4.8-10.4-10.6
			l0.3-11.6l0.5-19.2L254.2,68.7z"/>
		<path class="st23" d="M254.2,73.2L253,94.7c-10.1,0.4-17.4-3.7-20.8-9.1l0.5-14.7L254.2,73.2z"/>
		<path class="st24" d="M226,46.4c0,0-9.6-1.2-8.5,10.9c0.9,9.4,13.6,21.9,13.6,21.9S239.1,50.9,226,46.4z"/>
		<path class="st25" d="M265.4,55.1c-0.7,1.5-1.7,2.8-2.5,4.2c-0.8,1.4-1.5,3-1.3,4.6c-0.2-2.6-1.9-4.9-3.4-7
			c-1.5-2.2-2.9-4.8-2.2-7.3c0.7-2.4,5.1-6.3,7.8-4.7C266.8,46.7,266.6,52.5,265.4,55.1z"/>
		<path class="st22" d="M262.2,55.6c0,0,0.7,7.4-0.3,15.6c-1.2,9.5-0.8,20.6-14.7,21.4c-14.9,0.8-19.8-15.9-19.8-15.9
			s-7.9-1.5-8.5-6.8c-0.5-5.4,5-5.7,6.8-4.2c0,0,2-20,20.5-20C262.4,45.7,262.2,55.6,262.2,55.6z"/>
		<path class="st26" d="M244.7,70.9c0,0.8-0.7,1.5-1.5,1.5c-0.8,0-1.5-0.7-1.5-1.5c0-0.8,0.7-1.5,1.5-1.5
			C244,69.4,244.7,70,244.7,70.9z"/>
		<path class="st26" d="M258,70.9c0,0.8-0.7,1.5-1.5,1.5c-0.8,0-1.5-0.7-1.5-1.5c0-0.8,0.7-1.5,1.5-1.5C257.4,69.4,258,70,258,70.9z
			"/>
		<path class="st27" d="M237.8,65.7c0,0,2.2-3.6,6.8-2.3"/>
		<path class="st27" d="M252.7,63.4c0,0,3.4-3.1,6.7,0.3"/>
		<path class="st28" d="M249.7,67c0,0,1.6,4.1,3,6.6c1.4,2.5-2.7,3.7-2.7,3.7"/>
		<path class="st28" d="M244.4,81.9c0,0,3.3,3.2,7.5,1.2"/>
		<path class="st28" d="M225.4,71.6c0,0,0-4.6-3.5-3.3"/>
		<path class="st24" d="M229.9,50.3c0,0,8.4,8.5,3.8,11.8c-5.1,3.6-5.9,8.8-5.9,8.8s0.1-1.8-2.2-5.1
			C223.4,62.4,218.4,50.6,229.9,50.3z"/>
		<path class="st20" d="M304.3,190.2c6.1,4,52.4-45.5,52.4-45.5l-8.2-10.8c0,0-35.2,22.1-40.3,25.3
			C300.9,163.6,283.8,176.8,304.3,190.2z"/>
		<path class="st29" d="M279.7,161.4c0,0,2.1-22.6,1.7-29.8c0,0,2.9,19,3,36.6L279.7,161.4z"/>
		<path class="st20" d="M201.5,153.7c0,0,10.8-46.5-0.8-45.9c0,0-3.8,0.5-11.2,12c-5.2,8-10.9,22-21.2,44.7
			c-4.9,10.7-11,25.2,0.3,26c6.1,0.4,12.6-2.9,16.4-10C192,167.4,201.5,153.7,201.5,153.7z"/>
		<path class="st29" d="M211.2,211.5l59-13.9C270.2,197.6,251.6,211.5,211.2,211.5z"/>
		<path class="st29" d="M195.3,163c0,0,9.5-16.9,14.6-25.1L198,202.5C198,202.5,196.9,176.1,195.3,163z"/>
		<path class="st29" d="M233.3,185L198,201.5l1.8-17L233.3,185z"/>
		<path class="st30" d="M239,182.2L239,182.2l5.8-31.9v0c0.3-1.7,1.8-2.9,3.5-2.9h12.4c2.2,0,3.9,2,3.5,4.2v0l-5.8,31.9
			c-0.3,1.7-1.8,2.9-3.5,2.9h-12.4C240.3,186.3,238.6,184.3,239,182.2z"/>
		<path class="st31" d="M256.4,188.2H244c-2.5,0-4.4-2.3-4-4.8l5.8-31.9c0.3-1.9,2-3.3,4-3.3h12.4c2.5,0,4.4,2.3,4,4.8l-5.8,31.9
			C260.1,186.8,258.4,188.2,256.4,188.2z"/>
		<path class="st30" d="M247.2,159.6L247.2,159.6l1.4-7.8l0,0l0,0c0-0.1,0.1-0.2,0.3-0.2h2.2c0.2,0,0.3,0.2,0.3,0.3l0,0l-1.4,7.8
			l0,0v0c0,0.1-0.1,0.2-0.3,0.2h-2.2C247.3,159.9,247.2,159.7,247.2,159.6z"/>
		<path class="st19" d="M221.6,171c0,0,6-0.2,10.7-1.6c2-0.6,5.9-1.3,7.2-3.2c1.3-1.9,1.2-6,2.5-6.2c1-0.1,3,3.1,2.5,5.3
			c-0.5,2.1-0.8,3.3-1.5,4.3c-0.3,0.3,8.3,0.9,13.6-0.3c3.7-0.8,2.6,2.8,0.1,4c0,0,0.9,2.2-1.7,3c0,0,0,3-2.5,3.1
			c-0.3,0.7-0.8,2.2-2.9,2.7c-3.1,0.8-7.9,1.1-12.7,0.6c-2.4-0.2-13.7,1.8-13.7,1.8L221.6,171z"/>
		<path class="st20" d="M168.3,190.5c8.6,1.5,60-4.3,60-4.3l-1.3-18c0,0-41.9,2-47.4,1.5C161.1,168,157.6,188.6,168.3,190.5z"/>
		<path class="st24" d="M231.9,36.7c0.9-0.9,1.9-1.8,3.1-2c1.2-0.1,2.7,1,2.2,2.2c4.2-1.8,8.6-3.2,13.1-4.1c1.1-0.2,2.4-0.4,3.4,0.1
			c1,0.5,1.7,2,1,2.9c2.2,0.8,4.6,0.3,6.9,0c2.3-0.3,5-0.2,6.6,1.6c1.5,1.6,1.5,4,1.5,6.2c-0.1,3-0.1,6-0.8,8.9
			c-1,4.3-3.3,8.3-6.6,11.2c1-3.3-0.8-7-3.5-9.2c-2.7-2.2-6.3-3-9.7-3.4c-4.1-0.5-8.4-0.4-12.5,0.3c-3.1,0.5-7.6,2.7-10.6,1.3
			C219.1,49.6,229.3,39.3,231.9,36.7z"/>
	</g>
	<path class="st4" d="M337.8,75.2h-42.9c-3.3,0-5.9-2.7-5.9-6v-18c0-3.3,2.7-6,5.9-6h42.9c3.3,0,5.9,2.7,5.9,6v18
		C343.7,72.5,341.1,75.2,337.8,75.2z"/>
	<path class="st4" d="M298.1,73.2v8.2l8.8-8.8L298.1,73.2z"/>
	<path class="st13" d="M301.6,63.6c1.9,0,3.4-1.5,3.4-3.4c0-1.9-1.5-3.4-3.4-3.4c-1.9,0-3.4,1.5-3.4,3.4
		C298.1,62.1,299.7,63.6,301.6,63.6z"/>
	<path class="st13" d="M316.4,63.6c1.9,0,3.4-1.5,3.4-3.4c0-1.9-1.5-3.4-3.4-3.4c-1.9,0-3.4,1.5-3.4,3.4
		C312.9,62.1,314.5,63.6,316.4,63.6z"/>
	<path class="st13" d="M331.1,63.6c1.9,0,3.4-1.5,3.4-3.4c0-1.9-1.5-3.4-3.4-3.4c-1.9,0-3.4,1.5-3.4,3.4
		C327.7,62.1,329.3,63.6,331.1,63.6z"/>
	<path class="st32" d="M455.7,318.9l-1.9,23.7h10.1l5.2-23.7H455.7z"/>
	<path class="st33" d="M465,337.6c0,0,4.4,7.1,1.1,8.3c-3.3,1.3-24.9,1.4-30.2,0.6c-5.3-0.8,11.9-8.1,15.8-9.3
		C455.6,336.1,456.9,342.1,465,337.6z"/>
	<path class="st32" d="M508.7,318.9l1.9,23.7h-10.1l-5.2-23.7H508.7z"/>
	<path class="st33" d="M499.5,337.6c0,0-4.4,7.1-1.1,8.3c3.3,1.3,24.9,1.4,30.2,0.6c5.3-0.8-11.9-8.1-15.8-9.3
		C508.8,336.1,507.6,342.1,499.5,337.6z"/>
	<path class="st34" d="M453.7,189.5l-4.6,141.9h21.3l4.6-94.5l18.2,97.2l23.2-3.9c0,0-20.9-106-24.5-140.7L453.7,189.5L453.7,189.5z
		"/>
	<path class="st35" d="M474,243.4l-0.7-15.3l1.2,8.8L474,243.4z"/>
	<path class="st36" d="M485.1,189.5L509.7,331"/>
	<path class="st37" d="M480,85c4.5,0,9.4,2.4,10.9,6.7c1.2,3.3,0.3,7.2,2,10.3c1.2,2.3,3.7,3.8,4.8,6.1c2.3,4.9-2.2,10.6-0.7,15.8
		c1.3,4.8,7.2,7.5,7.7,12.5c0.3,3.1-1.9,6.2-4.8,7.5c-2.8,1.4-6.2,1.4-9.3,0.8c-7.7-1.3-14.9-5.5-22.6-5.1c-3.2,0.2-6.5,1.1-9.5-0.1
		c-2.1-0.9-3.6-2.7-5-4.6c-1.5-2.1-3-4.5-2.9-7.1c0.2-3.8,3.7-6.5,5.8-9.7c2.1-3.3,3-7.4,2.4-11.3c-2.8-18.4,7.5-17.9,8.9-17.9
		c1.2,0,5.2-2.5,6.8-3C476.3,85.3,478.1,85,480,85z"/>
	<path class="st38" d="M431.3,162.3c-4.4-3.5-22.2-15.3-22.4-17c-0.3-3.1-1.4-5.6-8.1-7.7c0,0-0.5,1,0.4,2.1c1,1.2,1.8,1.6,1.8,1.6
		s-1.8,0.7-4.4-1.4s-3.7-3.9-4.8-3.5c0,0-1.3-1.2-1.9-1c0,0-0.5,0.1-0.4,0.6c-1-0.2-0.8,2.8,0.9,5.2c2.6,3.5,7.2,6.2,9.8,7.2
		c2,0.8,15.2,20.2,24,22.4C428.9,171.4,433.3,164,431.3,162.3z"/>
	<path class="st38" d="M445.1,145.1c0,0-19.7,13.8-21.6,17.2c-1.9,3.4-0.5,12.6,8.3,6.7c8.8-5.9,22.6-16.5,22.6-16.5L445.1,145.1z"
		/>
	<path class="st39" d="M455.2,132.5c0,0-5.4,1.4-9,5.7c-3,3.6-7.9,9.4-7.9,9.4l15,11.6C453.3,159.2,456.9,138.1,455.2,132.5z"/>
	<path class="st33" d="M491.9,189.5h-38.2c0,0,0.2-6.6-2-16.8c-2.1-10.2-1.1-15.5,1.1-20.8c2.1-5.3-1.7-17.6,2.4-19.4
		c1.7-0.7,4.6-1.9,7.4-3c0.7-0.3,1.4-0.6,2.1-0.8c3.3-1.3,6.1-2.3,6.1-2.3h6.9c0,0,4.7,1.6,9.6,3.5c0.6,0.3,1.3,0.5,1.9,0.8
		c0,0,0,0,0,0c2.5,1,4.8,2.1,6.4,3.1C500.8,137,491.9,189.5,491.9,189.5z"/>
	<path class="st40" d="M468.5,109.5l0.7,14.2l0.2,4c0.1,1.7,0.8,3.3,2,4.4c1.2,1.1,2.7,1.8,4.4,1.8c3.6,0,6.5-3,6.5-6.6l-0.2-7.2
		l-0.3-12L468.5,109.5z"/>
	<path class="st41" d="M468.5,109.5l0.7,13.3c6.3,0.3,10.8-2.3,12.9-5.7l-0.3-9.1L468.5,109.5z"/>
	<path class="st40" d="M463.5,98.5c0,0-0.5,4.6,0.2,9.7c0.7,5.9,1.4,12.7,9.2,13.3c9.3,0.8,12.4-9.9,12.4-9.9s4.3-1,4.8-3.9
		c0.5-2.9-2.7-3.8-3.8-2.9c0,0-1.3-12.4-12.7-12.4C463.4,92.3,463.5,98.5,463.5,98.5z"/>
	<path class="st4" d="M489.3,130.7C489.3,130.7,489.3,130.7,489.3,130.7c-7.8,9.6-17.1,9.1-17.1,9.1c-7.3-1.6-9.5-10.3-9.5-10.3
		c0.7-0.3,1.4-0.6,2.1-0.8c3.3-1.3,6.1-2.3,6.1-2.3h6.9c0,0,4.7,1.6,9.6,3.5C488,130.2,488.6,130.4,489.3,130.7z"/>
	<path class="st38" d="M487.3,129.9c-8,8.7-14.9,7.8-14.9,7.8c-7.5-2.9-7.7-9-7.7-9c3.3-1.3,6.1-2.3,6.1-2.3h6.9
		C477.7,126.4,482.5,128,487.3,129.9z"/>
	<path class="st37" d="M467.5,89.6c0,0,1.1,9-4.7,12C462.8,101.6,459.9,90.7,467.5,89.6z"/>
	<path class="st37" d="M465.8,90.5c0,0,2.1,7.8,7.1,8.3c5.1,0.5,4.2,4.6,8.7,5.1c2.7,0.3,3.9,3.1,3.9,3.1s0.4-2.8,2.8-3.8
		C490.8,102.2,482.6,81.4,465.8,90.5z"/>
	<path class="st42" d="M474.4,109.4c0,0.5,0.4,0.9,0.9,0.9c0.5,0,0.9-0.4,0.9-0.9c0-0.5-0.4-0.9-0.9-0.9
		C474.8,108.5,474.4,108.9,474.4,109.4z"/>
	<path class="st42" d="M466.4,109.4c0,0.5,0.4,0.9,0.9,0.9c0.5,0,0.9-0.4,0.9-0.9c0-0.5-0.4-0.9-0.9-0.9
		C466.8,108.5,466.4,108.9,466.4,109.4z"/>
	<path class="st43" d="M478.5,106.3c0,0-1.3-2.2-4.1-1.4"/>
	<path class="st43" d="M469.6,104.9c0,0-2-1.8-4,0.2"/>
	<path class="st44" d="M471.4,107.1c0,0-1,2.4-1.8,4c-0.8,1.5,1.6,2.2,1.6,2.2"/>
	<path class="st44" d="M476.7,115c0,0-1.6,2.3-4.3,1.6"/>
	<path class="st44" d="M486.3,108.7c0,0,0-2.8,2.1-2"/>
	<path class="st4" d="M454.5,180.4h-35c-0.7,0-1.3-0.6-1.3-1.3s0.6-1.3,1.3-1.3h35c0.7,0,1.3,0.6,1.3,1.3
		C455.7,179.9,455.2,180.4,454.5,180.4z"/>
	<path class="st2" d="M415.5,150.6L415.5,150.6L415.5,150.6c-0.2-0.8,0.4-1.7,1.3-1.7h31.5c0.6,0,1.2,0.4,1.3,1v0l6.8,27.4h-34.3
		L415.5,150.6z"/>
	<path class="st12" d="M454.7,177.9h-35.3l-6.7-27.2c-0.3-1.2,0.6-2.3,1.8-2.3H446c0.8,0,1.6,0.6,1.8,1.4L454.7,177.9z"/>
	<path class="st4" d="M481.6,180.4h-26.5c-0.6,0-1.2-0.5-1.2-1.2v-0.2c0-0.6,0.5-1.2,1.2-1.2h26.5c0.6,0,1.2,0.5,1.2,1.2v0.2
		C482.8,179.9,482.2,180.4,481.6,180.4z"/>
	<path class="st2" d="M434.5,161.6L434.5,161.6c0.6,1.5,0,2.9-0.9,3.3c-0.9,0.4-2.3-0.3-2.9-1.8s0-3,0.9-3.3
		S433.9,160.1,434.5,161.6z"/>
	<path class="st39" d="M493.9,177.9l-2.3-29.8l4.4,12.6L493.9,177.9z"/>
	<path class="st38" d="M494.2,151.1c0,0,5.5,29.3,6.8,34.1c0.9,3.1,7.2,5.2,9.2,1.1c0.4-0.9,0.3-2.4,0.3-3.9
		c-0.3-9.5-6.9-33.6-6.9-33.6L494.2,151.1z"/>
	<path class="st33" d="M495.7,133.8c0,0,3.3,1.7,6,6.4c2.7,4.7,6.5,13,6.3,15.1c-1.4,3.9-12.7,7.9-12.7,7.9S487.8,138.5,495.7,133.8
		z"/>
	<path class="st38" d="M502,179.6c0,0-17.3-0.4-20.6-2.3c-4.4-2.7-5.5-1.5-8.1-2.1c-4.1-1-3.7-0.2-3.7-0.2s0.2,2.4,3.4,2.7
		c1.6,0.2,4,0.8,3.5,1.2c0,0-12.8,1.3-15.4,1.6c-2.6,0.2-1.3,2.2,0.6,2.7c0,0,1.2,1.5,3.1,1c0,0-0.4,0.8,4.5,0.8
		c4.9,0,9.9-2.6,12.4-1.5c2.5,1.1,16,6.4,24.6,5.2c4.1-0.6,4.1-2.6,4.1-4.6C510.5,180.4,507.9,180,502,179.6z"/>
	<path class="st45" d="M142.7,318.9l-5.7,23.7h-10.1l2.4-23.7H142.7z"/>
	<path class="st33" d="M125.8,337.6c0,0-4.4,7.1-1.1,8.3c3.3,1.3,24.9,1.4,30.2,0.6c5.3-0.8-11.9-8.1-15.8-9.3
		C135.2,336.1,133.9,342.1,125.8,337.6z"/>
	<path class="st45" d="M111,318.9l-3.5,23.7H97.4l0.2-23.7H111z"/>
	<path class="st33" d="M96.3,337.6c0,0-4.4,7.1-1.1,8.3c3.3,1.3,24.9,1.4,30.2,0.6c5.3-0.8-11.9-8.1-15.8-9.3
		C105.7,336.1,104.4,342.1,96.3,337.6z"/>
	<path class="st34" d="M94,204.5l0.7,126.2h16l11.3-92.8l12.9,37.6l-9.6,55.1h17.4c0,0,15.3-47.6,14.7-57
		c-0.6-9.4-18.3-73.1-18.3-73.1L94,204.5z"/>
	<path class="st46" d="M124.9,244.8l-2.4-6.9l1.1-11.2L124.9,244.8z"/>
	<path class="st47" d="M103.1,202.9l-0.9,127.8"/>
	<path class="st45" d="M152,146.6c0,0,10.3,19.6,10.6,25.6c0.2,6-6.4,4.7-9.8-0.7c-3.4-5.4-8.9-20.8-8.9-20.8L152,146.6z"/>
	<path class="st39" d="M154,148.3c0,0-3,5.3-10.1,8.5c-1.5,0.7-2.7-1.1-3.6-3.2c-1.1-2.4-1.7-5.3-1.7-5.3s-8.1-25.2-1-24.3
		c0,0,6.1,0.4,10.6,9.3c1.2,2.3,3,7,4.5,11.4C153.2,145.9,153.6,147.1,154,148.3z"/>
	<path class="st4" d="M154,148.3c0,0-3,5.3-10.1,8.5c-1.5,0.7-2.7-1.1-3.6-3.2c2.8-1.3,8-4.1,12.5-9
		C153.2,145.9,153.6,147.1,154,148.3z"/>
	<path class="st33" d="M139.5,202c-4.5,5.1-34.2,4.4-45.4,2.5c-2-0.3-3.9-1.1-0.8-8c1.2-2.6,0.7-9.2,0.5-18.2
		c-0.4-17.9-5.7-47.7,0.8-51.1c3.9-2.1,12.3-4.8,18.3-6.6c0.4-0.1,0.7-0.2,1.1-0.3c3.5-1.1,6.1-1.8,6.1-1.8s2.9,0.4,8.9,2.2
		c0.3,0.1,0.7,0.2,1,0.3c1.6,0.5,3.3,1,5.2,1.7c3.7,1.3,6.5,2,7.1,3.3c1.8,3.3,1.1,9,1.2,17.4C143.6,153.7,143.5,197.5,139.5,202z"
		/>
	<path class="st39" d="M92.3,157.9l6.4-15.7L94,182.5L92.3,157.9z"/>
	<path class="st4" d="M129.9,120.9c-0.1,2.2-1.1,4.2-2.6,5.6c-1.5,1.5-3.6,2.3-5.9,2.3c-4.7,0-8.4-3.7-8.5-8.4
		c0.4-0.1,0.7-0.2,1.1-0.3c3.5-1.1,6.1-1.8,6.1-1.8s2.9,0.4,8.9,2.2C129.2,120.7,129.6,120.8,129.9,120.9z"/>
	<path class="st48" d="M133.8,86.5c0,0-3.4-3.2-8.5-4c-7.5-1.1-17.3,1.3-19.3,12.7c-1.5,6.6,6.5,17.4,9.5,16.8
		C115.5,112,142.8,94.7,133.8,86.5z"/>
	<path class="st45" d="M128.9,102.3l-0.7,14.2l-0.2,4c-0.1,1.7-0.8,3.3-2,4.4c-1.2,1.1-2.7,1.8-4.4,1.8c-3.6,0-6.5-3-6.5-6.6
		l0.2-7.2l0.3-12L128.9,102.3z"/>
	<path class="st49" d="M128.9,105.2l-0.7,13.3c-6.3,0.3-10.8-2.3-12.9-5.7l0.3-9.1L128.9,105.2z"/>
	<path class="st45" d="M133.9,94.2c0,0,0.5,4.6-0.2,9.7c-0.7,5.9-0.5,12.8-9.2,13.3c-9.3,0.5-12.4-9.9-12.4-9.9s-4.9-0.9-5.3-4.3
		c-0.3-3.3,3.1-3.5,4.2-2.6c0,0,1.3-12.4,12.7-12.4C134,88,133.9,94.2,133.9,94.2z"/>
	<path class="st42" d="M123.2,103.1c0,0.5-0.4,0.9-0.9,0.9c-0.5,0-0.9-0.4-0.9-0.9c0-0.5,0.4-0.9,0.9-0.9
		C122.8,102.2,123.2,102.6,123.2,103.1z"/>
	<path class="st42" d="M132.1,102.6c0,0.5-0.4,0.9-0.9,0.9c-0.5,0-0.9-0.4-0.9-0.9c0-0.5,0.4-0.9,0.9-0.9
		C131.7,101.7,132.1,102.1,132.1,102.6z"/>
	<path class="st50" d="M118.7,100.5c0,0,1.4-2.2,4.3-1.4"/>
	<path class="st50" d="M128,99c0,0,2.1-1.9,4.2,0.2"/>
	<path class="st51" d="M126.1,101.3c0,0,1,2.5,1.8,4.1c0.8,1.6-1.7,2.3-1.7,2.3"/>
	<path class="st51" d="M122.8,110.5c0,0,2.1,2,4.7,0.8"/>
	<path class="st51" d="M110.9,104.1c0,0,0-2.9-2.2-2.1"/>
	<path class="st48" d="M113.8,90.8c0,0,5.2,5.3,2.4,7.4c-3.2,2.3-3.7,5.5-3.7,5.5s0.1-1.1-1.3-3.2C109.7,98.4,106.6,91,113.8,90.8z"
		/>
	<path class="st45" d="M85.2,147.7c0,0-10.3,19.6-10.6,25.6c-0.2,6,6.4,4.7,9.8-0.7c3.4-5.4,8.9-20.8,8.9-20.8L85.2,147.7z"/>
	<path class="st45" d="M158.9,165.6c0,0-15.4-11.4-16.3-12.1c-1.5-1.1-3.7-2.7-4.4-3.3c-1.2-0.9-8.5-2.1-9.5-2
		c-1,0.2-3.8,0.6-4.6,0.9c-0.8,0.3,0.2,1.3,1,1.8c0.8,0.5,4.4,2.3,7.4,2.9c1.7,0.3,3.1,1.2,4.3,2c0.9,0.7,17.2,17.3,17.8,17.7
		L158.9,165.6z"/>
	<path class="st45" d="M139.8,151.6c0,0-5.8-5.4-6.7-5.4c-0.9,0.1-0.2,1.3,2,3.2c0.8,0.6,1.6,1.6,2.3,2
		C138.8,152,139.8,151.6,139.8,151.6z"/>
	<path class="st2" d="M135.1,171.2L135.1,171.2c0.5-0.1,0.9-0.4,1.1-0.9l0,0l5.1-19.4c0.2-0.9-0.5-1.7-1.4-1.6c0,0,0,0,0,0
		l-21.1,2.5h0l0,0c-0.5,0.1-0.9,0.4-1.1,0.9l0,0l-5.1,19.4c-0.2,0.9,0.5,1.7,1.4,1.6L135.1,171.2z M135.1,171.2l-21.1,2.5
		L135.1,171.2z"/>
	<path class="st12" d="M136.1,172.3l-21.1,2.5c-1.2,0.1-2.2-1-1.9-2.2l5.1-19.4c0.2-0.7,0.8-1.2,1.5-1.3l21.1-2.5
		c1.2-0.1,2.2,1,1.9,2.2l-5.1,19.4C137.4,171.7,136.9,172.2,136.1,172.3z"/>
	<path class="st2" d="M119.9,157.1L119.9,157.1L119.9,157.1C119.9,157.1,119.9,157.1,119.9,157.1
		C119.8,157.1,119.8,157.2,119.9,157.1l-1.1,0.2l0,0c0,0,0,0-0.1,0c0,0,0,0,0-0.1l0,0l1-3.8l0,0l0,0c0,0,0,0,0,0l1-0.1l0,0
		c0,0,0,0,0.1,0c0,0,0,0,0,0.1v0L119.9,157.1z"/>
	<path class="st45" d="M78.6,167.5c6.5,0.3,26.6-0.2,29.3-1.1c1.1-0.4,4-1,4.7-2.1c0.7-1.1,1.3-2.9,2.1-3c0.6-0.1,0.4,1.8,0.3,2.5
		c-0.3,1.2-0.5,1.9-1,2.4c-0.1,0.2,4.8,0.9,7.9,0.1c2.1-0.5,1.7,1.2,0.3,1.9c0,0,0.6,1.5-0.9,2c0,0,0.3,1.7-1.2,1.8
		c-0.2,0.4-0.6,1.2-1.9,1.5c-1.8,0.5-5,0.5-7.4,0.6c-1.4,0.1-28.9,4.4-33.8,3.1C75,176.7,76.5,167.4,78.6,167.5z"/>
	<path class="st33" d="M97.1,150.3c0,0-0.5,1.8-1.2,3.7c-0.8,2-1.9,4.1-2.9,4c0,0-14.3-4.5-13.8-6c0.4-1.1,1-2.5,1.7-4.1
		c2.4-4.9,6.1-11.3,7.6-13.8c5.2-8.5,7.3-7.4,7.3-7.4C103.1,126.3,97.1,150.3,97.1,150.3z"/>
	<path class="st4" d="M95.9,154c-0.8,2-1.9,4.1-2.9,4c0,0-14.3-4.5-13.8-6c0.4-1.1,1-2.5,1.7-4.1C83.6,149.1,90.7,152.4,95.9,154z"
		/>
	<path class="st39" d="M100.5,194c0,0,23.7-3.8,36.5-11.4C136.9,182.5,122.7,196.9,100.5,194z"/>
	<path class="st33" d="M396.1,284.4h-61.7c-3,0-5.5-2.5-5.5-5.5v-29.8c0-3,2.5-5.5,5.5-5.5h61.7c3,0,5.5,2.5,5.5,5.5v29.8
		C401.6,282,399.2,284.4,396.1,284.4z"/>
	<path class="st52" d="M335.5,273.9c5.7,0,5.7-6.8,11.5-6.8c5.7,0,5.7-9.1,11.5-9.1c5.7,0,5.7,3.5,11.5,3.5c5.7,0,5.7-8.4,11.5-8.4
		c5.7,0,5.7,13.2,11.5,13.2"/>
	<path class="st12" d="M337.2,273.9c0-0.9-0.7-1.7-1.7-1.7c-0.9,0-1.7,0.7-1.7,1.7s0.7,1.7,1.7,1.7
		C336.5,275.6,337.2,274.8,337.2,273.9z"/>
	<path class="st12" d="M394.7,266.2c0-0.9-0.7-1.7-1.7-1.7c-0.9,0-1.7,0.7-1.7,1.7s0.7,1.7,1.7,1.7
		C393.9,267.9,394.7,267.1,394.7,266.2z"/>
	<path class="st33" d="M39.6,69h61.6c4.1,0,7.5-3.4,7.5-7.5V42.7c0-4.1-3.3-7.5-7.5-7.5H39.6c-4.1,0-7.5,3.4-7.5,7.5v18.8
		C32.2,65.7,35.5,69,39.6,69z"/>
	<path class="st33" d="M99.5,67.1v8.2l-8.8-8.8L99.5,67.1z"/>
	<path class="st53" d="M39.2,43.6h17.1"/>
	<path class="st53" d="M62.4,43.6h39.2"/>
	<path class="st53" d="M39.2,52.2h31.8"/>
	<path class="st53" d="M75.9,52.2h9.4"/>
	<path class="st53" d="M90.4,52.2h11.2"/>
	<path class="st53" d="M39.2,60.8h7.2"/>
	<path class="st53" d="M50.8,60.8h26"/>
	<path class="st33" d="M422.9,38.6h-15.8c-2.9,0-5.3-2.4-5.3-5.3V17.4c0-2.9,2.4-5.3,5.3-5.3h15.8c2.9,0,5.3,2.4,5.3,5.3v15.8
		C428.2,36.2,425.8,38.6,422.9,38.6z"/>
	<path class="st12" d="M424,24l-0.4-1.7c-0.1-0.3-0.4-0.5-0.8-0.5l-1,0.2c-0.3,0.1-0.5-0.1-0.7-0.3c-0.4-0.6-0.9-1.2-1.5-1.7
		c-0.2-0.2-0.3-0.5-0.2-0.8l0.5-1c0.2-0.3,0-0.7-0.3-0.8l-1.6-0.8c-0.3-0.2-0.7,0-0.8,0.3l-0.5,1.1c-0.1,0.3-0.4,0.4-0.7,0.3
		c-0.3,0-0.7-0.1-1-0.1c-0.4,0-0.7,0-1,0.1c-0.3,0-0.6-0.1-0.7-0.3l-0.5-1.1c-0.2-0.3-0.5-0.4-0.8-0.3l-1.6,0.8
		c-0.3,0.2-0.4,0.5-0.3,0.8l0.5,1c0.1,0.3,0,0.6-0.2,0.8c-0.6,0.5-1.1,1-1.5,1.7c-0.1,0.2-0.4,0.4-0.7,0.3l-1-0.2
		c-0.3-0.1-0.7,0.1-0.8,0.5l-0.4,1.7c-0.1,0.3,0.1,0.7,0.5,0.8l1.3,0.3c0,0.2,0,0.4,0,0.5c0,0.9,0.2,1.7,0.4,2.5
		c0.1,0.3,0,0.5-0.2,0.7l-0.5,0.4c-0.3,0.2-0.3,0.6-0.1,0.9l1.1,1.4c0.2,0.3,0.6,0.3,0.9,0.1l0.3-0.3c0.2-0.2,0.6-0.2,0.8,0
		c0.7,0.6,1.6,1,2.5,1.3c0.3,0.1,0.5,0.3,0.5,0.6v0.4c0,0.3,0.3,0.6,0.6,0.6h1.8c0.3,0,0.6-0.3,0.6-0.6v-0.4c0-0.3,0.2-0.5,0.5-0.6
		c0.9-0.3,1.7-0.7,2.5-1.3c0.2-0.2,0.6-0.2,0.8,0l0.3,0.3c0.3,0.2,0.7,0.2,0.9-0.1l1.1-1.4c0.2-0.3,0.2-0.7-0.1-0.9l-0.5-0.4
		c-0.2-0.2-0.3-0.5-0.2-0.7c0.3-0.8,0.4-1.6,0.4-2.5c0-0.2,0-0.4,0-0.5l1.3-0.3C423.8,24.6,424.1,24.3,424,24z M415,30
		c-2.5,0-4.5-2-4.5-4.5c0-2.5,2-4.5,4.5-4.5c2.5,0,4.5,2,4.5,4.5C419.5,28,417.5,30,415,30z"/>
	<path class="st33" d="M563.1,143.4c1.6-10-5.1-19.4-15.1-21c-10-1.6-19.4,5.2-21,15.1s5.1,19.4,15.1,21
		C552.1,160.1,561.5,153.3,563.1,143.4z"/>
	<path class="st54" d="M555.1,142.8c1.3-5.5-2.1-11.1-7.6-12.4c-5.5-1.3-11.1,2.1-12.4,7.7c-1.3,5.5,2.1,11.1,7.6,12.4
		C548.3,151.8,553.8,148.4,555.1,142.8z"/>
	<path class="st33" d="M545.1,133.7v6.7l-3.5,3.6"/>
	<path class="st52" d="M545.1,133.7v6.7l-3.5,3.6"/>
	<path class="st52" d="M545.1,130.1v1"/>
	<path class="st52" d="M545.1,149.7v1"/>
	<path class="st52" d="M555.4,140.4h-1"/>
	<path class="st52" d="M535.8,140.4h-1"/>
</g>
<g id="Layer_2">
	
		<image style="overflow:visible;" width="8000" height="5000" xlink:href="10088.png"  transform="matrix(7.487500e-02 0 0 7.487500e-02 0 0)">
	</image>
</g>
</svg>
