<?xml version="1.0" encoding="utf-8"?>
<!-- Generator: Adobe Illustrator 22.0.0, SVG Export Plug-In . SVG Version: 6.00 Build 0)  -->
<svg version="1.1" xmlns="http://www.w3.org/2000/svg" xmlns:xlink="http://www.w3.org/1999/xlink" x="0px" y="0px" width="434px"
	 height="127px" viewBox="0 0 434 127" style="enable-background:new 0 0 434 127;" xml:space="preserve">
<style type="text/css">
	.st0{display:none;}
	.st1{display:inline;fill:#FFFFFF;}
	.st2{fill:#FFFFFF;stroke:#FFFFFF;}
	.st3{fill:none;}
</style>
<g id="Layer_1" class="st0">
	<path class="st1" d="M72.8,5.4h-52C7,5.4,0,12.1,0,25.4v71.1c0,1.7,0.9,2.8,3,2.8h15.7c1.9,0,3.1-1.1,3.1-2.8v-2.7
		c0-6.6,2.8-10.2,9.7-10.9h41.3c15.2,0,22-6.6,22-20.9V26.3C94.8,11.9,87.9,5.4,72.8,5.4z M73,56c0,7.8-1.8,9.4-11,9.4H40
		c-9.3,0-15.2,3.1-18.3,9.1V30.6c0-6,1.5-7.7,8.9-7.7H62c9.3,0,11,1.6,11,9.4V56z"/>
	<path class="st1" d="M144.6,44.7c-11.9,0-17.1,6-17.1,16.2v35.8c0,1.6-0.8,2.5-2.7,2.5h-14.2c-1.9,0-2.8-0.9-2.8-2.5V31.3
		c0-1.6,0.9-2.6,2.8-2.6h11.9c1.8,0,2.7,0.9,2.7,2.6v10.6c2.3-8.7,8.9-13.2,20.5-13.2h4.8c1.7,0,2.7,0.9,2.7,2.6v10.9
		c0,1.7-0.9,2.5-2.7,2.5H144.6z"/>
	<path class="st1" d="M237.2,80.1c0,13.3-5.9,19.2-20,19.2h-34.9c-14,0-20-5.9-20-19.2V47.9c0-13.3,6-19.2,20-19.2h34.9
		c14.1,0,20,5.9,20,19.2V80.1z M217.5,53c0-7-1.3-8.3-9.7-8.3h-16c-8.5,0-9.8,1.3-9.8,8.3v22c0,7,1.3,8.3,9.8,8.3h16
		c8.3,0,9.7-1.3,9.7-8.3V53z"/>
	<path class="st1" d="M257.1,44.7h-6.7c-1.8,0-2.7-0.8-2.7-2.5V31.3c0-1.6,0.9-2.6,2.7-2.6h6.7V20c0-13.3,7-20,20.8-20h16.5
		c1.9,0,2.7,0.9,2.7,2.5v10.9c0,1.8-0.8,2.5-2.7,2.5h-8.7c-7.4,0-8.9,1.6-8.9,7.7v5.1h17.6c1.9,0,2.7,0.9,2.7,2.6v10.9
		c0,1.7-0.8,2.5-2.7,2.5h-17.6v52.1c0,1.6-0.9,2.5-2.8,2.5h-14.2c-1.9,0-2.7-0.9-2.7-2.5V44.7z"/>
	<path class="st1" d="M311.8,44.7h-6.7c-1.7,0-2.7-0.8-2.7-2.5V31.3c0-1.6,0.9-2.6,2.7-2.6h6.7V20c0-13.3,7-20,20.8-20h16.5
		c1.9,0,2.7,0.9,2.7,2.5v10.9c0,1.8-0.8,2.5-2.7,2.5h-8.7c-7.4,0-8.9,1.6-8.9,7.7v5.1h17.6c1.9,0,2.7,0.9,2.7,2.6v10.9
		c0,1.7-0.8,2.5-2.7,2.5h-17.6v52.1c0,1.6-0.9,2.5-2.8,2.5h-14.2c-1.9,0-2.7-0.9-2.7-2.5V44.7z"/>
	<path class="st1" d="M411.8,126.7h-29.3c-13.1,0-18.8-5.1-18.8-17.7v-1.3c0-0.4,0-0.7,0.1-1.1c0.1-0.3,0.3-0.7,0.6-0.9
		c0.3-0.3,0.6-0.4,0.9-0.6c0.3-0.1,0.7-0.2,1.1-0.1h13.7c1.9,0,2.8,0.9,2.8,2.7v0.7c0,2.7,1.5,3.8,4.4,3.8h16.9
		c8.1,0,10.1-2,10.1-8.9V82.1c-3.1,6-9,9.1-18.3,9.1h-13.7c-14,0-20.1-5.9-20.1-19.2V31.3c0-0.4,0-0.7,0.2-1
		c0.1-0.3,0.3-0.6,0.6-0.9c0.3-0.2,0.6-0.4,0.9-0.5c0.3-0.1,0.7-0.2,1-0.1h14.4c1.7,0,2.7,0.9,2.7,2.6V67c0,7,1.5,8.3,9.8,8.3H402
		c8.9,0,12.4-3.6,12.4-11v-33c0-1.6,0.9-2.6,2.7-2.6h14.4c0.3,0,0.7,0,1,0.1c0.3,0.1,0.6,0.3,0.9,0.5c0.2,0.2,0.4,0.5,0.5,0.9
		c0.1,0.3,0.2,0.7,0.1,1v74.1C434,119.5,426.5,126.7,411.8,126.7z"/>
</g>
<g id="Layer_2">
	<g>
		<path class="st2" d="M46.3,28.9c2.5,0,4.8,0.6,7,1.7c2.2,1.2,4.1,2.7,5.7,4.7c1.6,2,2.9,4.3,3.8,7c0.9,2.7,1.4,5.5,1.4,8.5v14.3
			c0,3-0.5,5.9-1.4,8.5c-0.9,2.7-2.2,5-3.8,7c-1.6,2-3.5,3.6-5.7,4.7c-2.2,1.2-4.5,1.7-7,1.7H28.7V103c0,1-0.3,1.8-0.9,2.5
			c-0.6,0.7-1.3,1.1-2.1,1.1H8.6c-0.8,0-1.5-0.3-2.1-1.1C6,104.8,5.7,104,5.7,103V32.5c0-1,0.3-1.8,0.9-2.5c0.6-0.7,1.3-1.1,2.1-1.1
			H46.3z M38.2,67.9c0.8,0,1.5-0.4,2.1-1.1c0.6-0.7,0.9-1.6,0.9-2.6V51.9c0-1-0.3-1.8-0.9-2.6c-0.6-0.7-1.3-1.1-2.1-1.1h-9.6v19.6
			H38.2z"/>
		<path class="st2" d="M70.4,32.5c0-1,0.3-1.8,0.9-2.5c0.6-0.7,1.3-1.1,2.1-1.1h37.2c2.5,0,4.8,0.5,7,1.5c2.2,1,4.1,2.4,5.7,4.2
			c1.6,1.8,2.9,3.9,3.8,6.4c0.9,2.5,1.4,5.1,1.4,7.9V61c0,3.9-0.5,7.5-1.6,10.9c-1.1,3.4-2.5,6.3-4.4,8.7l8.9,22.3
			c0.2,0.6,0.3,1.1,0.3,1.6c0,1.3-0.6,2-1.8,2h-17.2c-0.8,0-1.6-0.3-2.4-1.1c-0.8-0.7-1.5-1.5-1.9-2.5l-6.3-15.8h-9.6V103
			c0,1-0.3,1.8-0.9,2.5c-0.6,0.7-1.3,1.1-2.1,1.1H73.3c-0.8,0-1.5-0.3-2.1-1.1c-0.6-0.7-0.9-1.5-0.9-2.5V32.5z M102.4,67.9
			c0.8,0,1.5-0.4,2.1-1.1c0.6-0.7,0.9-1.6,0.9-2.6V51.9c0-1-0.3-1.8-0.9-2.6c-0.6-0.7-1.3-1.1-2.1-1.1h-9.9v19.6H102.4z"/>
		<path class="st2" d="M134,50.9c0-3,0.5-5.9,1.4-8.5c0.9-2.7,2.2-5,3.9-7c1.6-2,3.5-3.6,5.7-4.7c2.2-1.2,4.5-1.7,6.9-1.7h25.6
			c2.5,0,4.8,0.6,6.9,1.7c2.2,1.2,4.1,2.7,5.7,4.7c1.6,2,2.9,4.3,3.9,7c0.9,2.7,1.4,5.5,1.4,8.5v33.7c0,3-0.5,5.9-1.4,8.5
			c-0.9,2.7-2.2,5-3.9,7c-1.6,2-3.5,3.6-5.7,4.7c-2.2,1.2-4.5,1.7-6.9,1.7h-25.6c-2.5,0-4.8-0.6-6.9-1.7c-2.2-1.2-4.1-2.7-5.7-4.7
			c-1.6-2-2.9-4.3-3.9-7c-0.9-2.7-1.4-5.5-1.4-8.5V50.9z M157,83.6c0,1,0.3,1.8,0.9,2.5c0.6,0.7,1.3,1.1,2.1,1.1h9.6
			c0.8,0,1.5-0.4,2.1-1.1c0.6-0.7,0.9-1.5,0.9-2.5V51.9c0-1-0.3-1.8-0.9-2.5c-0.6-0.7-1.3-1.1-2.1-1.1h-9.6c-0.8,0-1.5,0.4-2.1,1.1
			c-0.6,0.7-0.9,1.5-0.9,2.5V83.6z"/>
		<path class="st2" d="M247.9,28.9c0.8,0,1.5,0.4,2.1,1c0.6,0.7,0.9,1.5,0.9,2.5v12.2c0,1-0.3,1.8-0.9,2.5c-0.6,0.7-1.3,1-2.1,1
			h-22.6v9.6h20.5c0.8,0,1.5,0.4,2.1,1.1c0.6,0.7,0.9,1.5,0.9,2.5v12.2c0,1-0.3,1.8-0.9,2.5c-0.6,0.7-1.3,1.1-2.1,1.1h-20.5V103
			c0,1-0.3,1.8-0.9,2.5c-0.6,0.7-1.3,1.1-2.1,1.1h-16.8c-0.8,0-1.5-0.3-2.1-1.1c-0.6-0.7-0.9-1.5-0.9-2.5V32.5c0-1,0.3-1.8,0.9-2.5
			c0.6-0.7,1.3-1.1,2.1-1.1H247.9z"/>
		<path class="st2" d="M301.2,28.9c0.8,0,1.5,0.4,2.1,1c0.6,0.7,0.9,1.5,0.9,2.5v12.2c0,1-0.3,1.8-0.9,2.5c-0.6,0.7-1.3,1-2.1,1
			h-22.6v9.6h20.5c0.8,0,1.5,0.4,2.1,1.1c0.6,0.7,0.9,1.5,0.9,2.5v12.2c0,1-0.3,1.8-0.9,2.5c-0.6,0.7-1.3,1.1-2.1,1.1h-20.5V103
			c0,1-0.3,1.8-0.9,2.5c-0.6,0.7-1.3,1.1-2.1,1.1h-16.8c-0.8,0-1.5-0.3-2.1-1.1c-0.6-0.7-0.9-1.5-0.9-2.5V32.5c0-1,0.3-1.8,0.9-2.5
			c0.6-0.7,1.3-1.1,2.1-1.1H301.2z"/>
		<path class="st2" d="M347.9,80.3V103c0,1-0.3,1.8-0.9,2.5c-0.6,0.7-1.3,1.1-2.1,1.1h-17.2c-0.8,0-1.5-0.3-2.1-1.1
			c-0.6-0.7-0.9-1.5-0.9-2.5V80.4l-20.2-47.9c-0.2-0.6-0.3-1.1-0.3-1.6c0-1.3,0.6-2,1.8-2h17.2c0.8,0,1.6,0.4,2.5,1.1
			c0.9,0.7,1.5,1.5,1.8,2.5l8.7,20.6l8.7-20.6c0.5-1,1.1-1.8,2-2.5c0.9-0.7,1.7-1.1,2.5-1.1h17.2c1.2,0,1.8,0.6,1.8,1.9
			c0,0.4-0.1,1-0.4,1.7L347.9,80.3z"/>
		<path class="st2" d="M390,87.2h12.4c0.8,0,1.5-0.4,2.1-1.1c0.6-0.7,0.9-1.5,0.9-2.5v-3.8c0-1-0.3-1.8-0.9-2.5
			c-0.6-0.7-1.3-1.1-2.1-1.1H384c-2.1,0-4-0.4-5.9-1.3c-1.9-0.9-3.6-2.1-5-3.7s-2.6-3.6-3.5-5.9c-0.9-2.3-1.3-4.9-1.3-7.8v-6.6
			c0-3,0.5-5.9,1.4-8.5c0.9-2.7,2.2-5,3.9-7c1.6-2,3.5-3.6,5.7-4.7c2.2-1.2,4.5-1.7,6.9-1.7h22.1c2.3,0,4.5,0.6,6.6,1.7
			c2.1,1.1,4,2.6,5.7,4.5c1.6,1.9,2.9,4.1,3.9,6.5c1,2.5,1.5,5,1.5,7.7c0,1.3-0.3,2.5-0.9,3.4c-0.6,0.9-1.3,1.4-2.1,1.4H407
			c-1.3,0-2.3-0.5-3-1.4c-0.7-0.9-1-2.1-1-3.4v-1h-10.2c-0.8,0-1.5,0.4-2.1,1.1c-0.6,0.7-0.9,1.6-0.9,2.6v1.3c0,1,0.3,1.9,0.9,2.6
			c0.6,0.7,1.3,1.1,2.1,1.1h19.6c2.2,0,4.2,0.5,6.2,1.5c1.9,1,3.6,2.4,5.1,4.1c1.4,1.7,2.6,3.8,3.4,6.2c0.8,2.4,1.2,4.9,1.2,7.5v8.3
			c0,3-0.5,5.9-1.4,8.5c-0.9,2.7-2.2,5-3.9,7c-1.6,2-3.5,3.6-5.7,4.7c-2.2,1.2-4.5,1.7-6.9,1.7h-25.6c-2.5,0-4.8-0.6-7-1.7
			c-2.1-1.1-4-2.6-5.7-4.5c-1.6-1.9-2.9-4.1-3.8-6.5c-0.9-2.5-1.4-5-1.4-7.7c0-1.5,0.3-2.7,0.9-3.8c0.6-1.1,1.3-1.6,2.1-1.6H386
			c1.3,0,2.3,0.5,3,1.6c0.7,1.1,1,2.3,1,3.8V87.2z"/>
	</g>
	<rect x="-30.3" y="15.8" class="st3" width="475.3" height="9"/>
</g>
<g id="Layer_3">
</g>
</svg>
