<?xml version="1.0" encoding="utf-8"?>
<!-- Generator: Adobe Illustrator 22.0.0, SVG Export Plug-In . SVG Version: 6.00 Build 0)  -->
<svg version="1.1" xmlns="http://www.w3.org/2000/svg" xmlns:xlink="http://www.w3.org/1999/xlink" x="0px" y="0px" width="434px"
	 height="127px" viewBox="0 0 434 127" style="enable-background:new 0 0 434 127;" xml:space="preserve">
<style type="text/css">
	.st0{display:none;}
	.st1{display:inline;fill:#FFFFFF;}
	.st2{fill:#FFFFFF;stroke:#FFFFFF;}
	.st3{fill:none;}
</style>
<g id="Layer_1" class="st0">
	<path class="st1" d="M72.8,5.4h-52C7,5.4,0,12.1,0,25.4v71.1c0,1.7,0.9,2.8,3,2.8h15.7c1.9,0,3.1-1.1,3.1-2.8v-2.7
		c0-6.6,2.8-10.2,9.7-10.9h41.3c15.2,0,22-6.6,22-20.9V26.3C94.8,11.9,87.9,5.4,72.8,5.4z M73,56c0,7.8-1.8,9.4-11,9.4H40
		c-9.3,0-15.2,3.1-18.3,9.1V30.6c0-6,1.5-7.7,8.9-7.7H62c9.3,0,11,1.6,11,9.4V56z"/>
	<path class="st1" d="M144.6,44.7c-11.9,0-17.1,6-17.1,16.2v35.8c0,1.6-0.8,2.5-2.7,2.5h-14.2c-1.9,0-2.8-0.9-2.8-2.5V31.3
		c0-1.6,0.9-2.6,2.8-2.6h11.9c1.8,0,2.7,0.9,2.7,2.6v10.6c2.3-8.7,8.9-13.2,20.5-13.2h4.8c1.7,0,2.7,0.9,2.7,2.6v10.9
		c0,1.7-0.9,2.5-2.7,2.5H144.6z"/>
	<path class="st1" d="M237.2,80.1c0,13.3-5.9,19.2-20,19.2h-34.9c-14,0-20-5.9-20-19.2V47.9c0-13.3,6-19.2,20-19.2h34.9
		c14.1,0,20,5.9,20,19.2V80.1z M217.5,53c0-7-1.3-8.3-9.7-8.3h-16c-8.5,0-9.8,1.3-9.8,8.3v22c0,7,1.3,8.3,9.8,8.3h16
		c8.3,0,9.7-1.3,9.7-8.3V53z"/>
	<path class="st1" d="M257.1,44.7h-6.7c-1.8,0-2.7-0.8-2.7-2.5V31.3c0-1.6,0.9-2.6,2.7-2.6h6.7V20c0-13.3,7-20,20.8-20h16.5
		c1.9,0,2.7,0.9,2.7,2.5v10.9c0,1.8-0.8,2.5-2.7,2.5h-8.7c-7.4,0-8.9,1.6-8.9,7.7v5.1h17.6c1.9,0,2.7,0.9,2.7,2.6v10.9
		c0,1.7-0.8,2.5-2.7,2.5h-17.6v52.1c0,1.6-0.9,2.5-2.8,2.5h-14.2c-1.9,0-2.7-0.9-2.7-2.5V44.7z"/>
	<path class="st1" d="M311.8,44.7h-6.7c-1.7,0-2.7-0.8-2.7-2.5V31.3c0-1.6,0.9-2.6,2.7-2.6h6.7V20c0-13.3,7-20,20.8-20h16.5
		c1.9,0,2.7,0.9,2.7,2.5v10.9c0,1.8-0.8,2.5-2.7,2.5h-8.7c-7.4,0-8.9,1.6-8.9,7.7v5.1h17.6c1.9,0,2.7,0.9,2.7,2.6v10.9
		c0,1.7-0.8,2.5-2.7,2.5h-17.6v52.1c0,1.6-0.9,2.5-2.8,2.5h-14.2c-1.9,0-2.7-0.9-2.7-2.5V44.7z"/>
	<path class="st1" d="M411.8,126.7h-29.3c-13.1,0-18.8-5.1-18.8-17.7v-1.3c0-0.4,0-0.7,0.1-1.1c0.1-0.3,0.3-0.7,0.6-0.9
		c0.3-0.3,0.6-0.4,0.9-0.6c0.3-0.1,0.7-0.2,1.1-0.1h13.7c1.9,0,2.8,0.9,2.8,2.7v0.7c0,2.7,1.5,3.8,4.4,3.8h16.9
		c8.1,0,10.1-2,10.1-8.9V82.1c-3.1,6-9,9.1-18.3,9.1h-13.7c-14,0-20.1-5.9-20.1-19.2V31.3c0-0.4,0-0.7,0.2-1
		c0.1-0.3,0.3-0.6,0.6-0.9c0.3-0.2,0.6-0.4,0.9-0.5c0.3-0.1,0.7-0.2,1-0.1h14.4c1.7,0,2.7,0.9,2.7,2.6V67c0,7,1.5,8.3,9.8,8.3H402
		c8.9,0,12.4-3.6,12.4-11v-33c0-1.6,0.9-2.6,2.7-2.6h14.4c0.3,0,0.7,0,1,0.1c0.3,0.1,0.6,0.3,0.9,0.5c0.2,0.2,0.4,0.5,0.5,0.9
		c0.1,0.3,0.2,0.7,0.1,1v74.1C434,119.5,426.5,126.7,411.8,126.7z"/>
</g>
<g id="Layer_2">
	<g>
		<path class="st2" d="M59.2,35.1c2.4,0,4.6,0.5,6.7,1.4c2.1,0.9,3.9,2.1,5.5,3.7c1.5,1.6,2.8,3.4,3.7,5.5c0.9,2.1,1.4,4.3,1.4,6.7
			v11.2c0,2.4-0.5,4.6-1.4,6.7c-0.9,2.1-2.1,3.9-3.7,5.5c-1.5,1.6-3.4,2.8-5.5,3.7c-2.1,0.9-4.3,1.4-6.7,1.4H42.2V93
			c0,0.8-0.3,1.4-0.8,2c-0.5,0.5-1.2,0.8-2,0.8H23c-0.8,0-1.4-0.3-2-0.8c-0.5-0.5-0.8-1.2-0.8-2V37.9c0-0.8,0.3-1.4,0.8-2
			c0.5-0.5,1.2-0.8,2-0.8H59.2z M51.4,65.5c0.8,0,1.4-0.3,2-0.8c0.5-0.6,0.8-1.2,0.8-2v-9.6c0-0.8-0.3-1.4-0.8-2
			c-0.5-0.6-1.2-0.8-2-0.8h-9.2v15.3H51.4z"/>
		<path class="st2" d="M82.3,37.9c0-0.8,0.3-1.4,0.8-2c0.5-0.5,1.2-0.8,2-0.8h35.7c2.4,0,4.6,0.4,6.7,1.2c2.1,0.8,3.9,1.9,5.5,3.3
			c1.5,1.4,2.8,3.1,3.7,5c0.9,1.9,1.4,4,1.4,6.2v9.5c0,3-0.5,5.9-1.6,8.6c-1,2.7-2.4,5-4.2,6.8l8.6,17.4c0.2,0.4,0.3,0.9,0.3,1.2
			c0,1-0.6,1.6-1.7,1.6H123c-0.8,0-1.6-0.3-2.3-0.8c-0.8-0.5-1.4-1.2-1.9-2l-6.1-12.3h-9.2V93c0,0.8-0.3,1.4-0.8,2
			c-0.5,0.5-1.2,0.8-2,0.8H85.1c-0.8,0-1.4-0.3-2-0.8c-0.5-0.5-0.8-1.2-0.8-2V37.9z M113,65.5c0.8,0,1.4-0.3,2-0.8
			c0.5-0.6,0.8-1.2,0.8-2v-9.6c0-0.8-0.3-1.4-0.8-2c-0.5-0.6-1.2-0.8-2-0.8h-9.5v15.3H113z"/>
		<path class="st2" d="M143.3,52.3c0-2.4,0.5-4.6,1.4-6.7c0.9-2.1,2.1-3.9,3.7-5.5c1.6-1.6,3.4-2.8,5.5-3.7c2.1-0.9,4.3-1.4,6.7-1.4
			H185c2.4,0,4.6,0.5,6.7,1.4c2.1,0.9,3.9,2.1,5.5,3.7c1.6,1.6,2.8,3.4,3.7,5.5c0.9,2.1,1.4,4.3,1.4,6.7v26.3c0,2.4-0.5,4.6-1.4,6.7
			c-0.9,2.1-2.1,3.9-3.7,5.5c-1.6,1.6-3.4,2.8-5.5,3.7c-2.1,0.9-4.3,1.4-6.7,1.4h-24.5c-2.4,0-4.6-0.5-6.7-1.4
			c-2.1-0.9-3.9-2.1-5.5-3.7c-1.6-1.6-2.8-3.4-3.7-5.5c-0.9-2.1-1.4-4.3-1.4-6.7V52.3z M165.3,77.9c0,0.8,0.3,1.4,0.8,2
			c0.5,0.5,1.2,0.8,2,0.8h9.2c0.8,0,1.4-0.3,2-0.8c0.5-0.6,0.8-1.2,0.8-2V53c0-0.8-0.3-1.4-0.8-2c-0.5-0.6-1.2-0.8-2-0.8h-9.2
			c-0.8,0-1.4,0.3-2,0.8c-0.5,0.6-0.8,1.2-0.8,2V77.9z"/>
		<path class="st2" d="M252.5,35.1c0.8,0,1.4,0.3,2,0.8c0.5,0.5,0.8,1.2,0.8,2v9.6c0,0.8-0.3,1.4-0.8,2c-0.5,0.5-1.2,0.8-2,0.8
			h-21.6v7.5h19.7c0.8,0,1.4,0.3,2,0.8c0.5,0.5,0.8,1.2,0.8,2v9.5c0,0.8-0.3,1.4-0.8,2c-0.5,0.5-1.2,0.8-2,0.8h-19.7V93
			c0,0.8-0.3,1.4-0.8,2c-0.5,0.5-1.2,0.8-2,0.8H212c-0.8,0-1.4-0.3-2-0.8c-0.5-0.5-0.8-1.2-0.8-2V37.9c0-0.8,0.3-1.4,0.8-2
			c0.5-0.5,1.2-0.8,2-0.8H252.5z"/>
		<path class="st2" d="M303.7,35.1c0.8,0,1.4,0.3,2,0.8c0.5,0.5,0.8,1.2,0.8,2v9.6c0,0.8-0.3,1.4-0.8,2c-0.5,0.5-1.2,0.8-2,0.8
			h-21.6v7.5h19.7c0.8,0,1.4,0.3,2,0.8c0.5,0.5,0.8,1.2,0.8,2v9.5c0,0.8-0.3,1.4-0.8,2c-0.5,0.5-1.2,0.8-2,0.8h-19.7V93
			c0,0.8-0.3,1.4-0.8,2c-0.5,0.5-1.2,0.8-2,0.8h-16.1c-0.8,0-1.4-0.3-2-0.8c-0.5-0.5-0.8-1.2-0.8-2V37.9c0-0.8,0.3-1.4,0.8-2
			c0.5-0.5,1.2-0.8,2-0.8H303.7z"/>
		<path class="st2" d="M348.5,75.2V93c0,0.8-0.3,1.4-0.8,2c-0.5,0.5-1.2,0.8-2,0.8h-16.5c-0.8,0-1.4-0.3-2-0.8
			c-0.5-0.5-0.8-1.2-0.8-2V75.3L307,37.9c-0.2-0.4-0.3-0.8-0.3-1.2c0-1,0.6-1.6,1.7-1.6h16.5c0.8,0,1.6,0.3,2.4,0.8
			c0.8,0.5,1.4,1.2,1.8,2l8.4,16.1l8.4-16.1c0.4-0.8,1.1-1.4,1.9-2c0.8-0.5,1.6-0.8,2.4-0.8h16.5c1.2,0,1.7,0.5,1.7,1.5
			c0,0.3-0.1,0.8-0.4,1.3L348.5,75.2z"/>
		<path class="st2" d="M388.9,80.7h11.9c0.8,0,1.4-0.3,2-0.8c0.5-0.5,0.8-1.2,0.8-2v-3c0-0.8-0.3-1.4-0.8-2c-0.5-0.5-1.2-0.8-2-0.8
			h-17.7c-2,0-3.9-0.3-5.7-1c-1.8-0.7-3.4-1.7-4.8-2.9s-2.5-2.8-3.4-4.6c-0.9-1.8-1.3-3.8-1.3-6.1v-5.2c0-2.4,0.5-4.6,1.4-6.7
			c0.9-2.1,2.1-3.9,3.7-5.5c1.6-1.6,3.4-2.8,5.5-3.7c2.1-0.9,4.3-1.4,6.7-1.4h21.2c2.2,0,4.3,0.4,6.4,1.3c2.1,0.9,3.9,2.1,5.4,3.5
			c1.6,1.5,2.8,3.2,3.8,5.1c1,1.9,1.4,3.9,1.4,6c0,1-0.3,1.9-0.8,2.6c-0.5,0.7-1.2,1.1-2,1.1h-15.5c-1.3,0-2.2-0.4-2.8-1.1
			c-0.6-0.7-0.9-1.6-0.9-2.7v-0.8h-9.8c-0.8,0-1.4,0.3-2,0.8c-0.5,0.6-0.8,1.2-0.8,2v1c0,0.8,0.3,1.5,0.8,2c0.5,0.6,1.2,0.8,2,0.8
			h18.8c2.1,0,4.1,0.4,5.9,1.2c1.9,0.8,3.5,1.9,4.9,3.2c1.4,1.4,2.5,3,3.3,4.8c0.8,1.9,1.2,3.8,1.2,5.9v6.5c0,2.4-0.5,4.6-1.4,6.7
			c-0.9,2.1-2.1,3.9-3.7,5.5c-1.6,1.6-3.4,2.8-5.5,3.7c-2.1,0.9-4.3,1.4-6.7,1.4h-24.5c-2.4,0-4.6-0.4-6.7-1.3
			c-2.1-0.9-3.9-2.1-5.4-3.5c-1.6-1.5-2.8-3.2-3.7-5.1c-0.9-1.9-1.3-3.9-1.3-6c0-1.2,0.3-2.1,0.8-3c0.5-0.8,1.2-1.2,2-1.2h15.5
			c1.3,0,2.2,0.4,2.8,1.2c0.6,0.8,0.9,1.8,0.9,3V80.7z"/>
	</g>
	<rect x="-11" y="21" class="st3" width="456" height="7"/>
</g>
</svg>
