<?xml version="1.0" encoding="utf-8"?>
<!-- Generator: Adobe Illustrator 22.0.0, SVG Export Plug-In . SVG Version: 6.00 Build 0)  -->
<svg version="1.1" id="Layer_1" xmlns="http://www.w3.org/2000/svg" xmlns:xlink="http://www.w3.org/1999/xlink" x="0px" y="0px"
	 width="49px" height="32px" viewBox="0 0 49 32" style="enable-background:new 0 0 49 32;" xml:space="preserve">
<style type="text/css">
	.st0{fill:#FFFFFF;}
</style>
<g>
	<path class="st0" d="M24.8,28.8c6.9,0,12.6-5.6,12.6-12.6c0-6.9-5.6-12.6-12.6-12.6S12.2,9.3,12.2,16.3
		C12.2,23.2,17.9,28.8,24.8,28.8z M24.8,5.4c6,0,10.9,4.9,10.9,10.9c0,6-4.9,10.9-10.9,10.9c-6,0-10.9-4.9-10.9-10.9
		C13.9,10.3,18.8,5.4,24.8,5.4z"/>
	<path class="st0" d="M23.1,21.7c0.3,0.3,0.9,0.3,1.2,0c0.3-0.3,0.3-0.9,0-1.2L21,17.1l9.6,0c0.5,0,0.9-0.4,0.9-0.9
		c0-0.5-0.4-0.9-0.9-0.9l-9.6,0l3.3-3.3c0.3-0.3,0.3-0.9,0-1.2c-0.2-0.2-0.4-0.3-0.6-0.3c-0.2,0-0.4,0.1-0.6,0.3l-4.8,4.8
		c-0.2,0.2-0.3,0.4-0.3,0.6c0,0.2,0.1,0.4,0.3,0.6L23.1,21.7z"/>
</g>
</svg>
